<svg width="15" height="14" viewBox="0 0 15 14" fill="none" xmlns="http://www.w3.org/2000/svg">
<path d="M12.4839 10.755C12.2052 10.755 11.9328 10.8377 11.7011 10.9925C11.4694 11.1473 11.2888 11.3673 11.1822 11.6248C11.0756 11.8822 11.0477 12.1655 11.102 12.4388C11.1564 12.7121 11.2906 12.9631 11.4876 13.1602C11.6847 13.3572 11.9357 13.4914 12.209 13.5458C12.4823 13.6001 12.7656 13.5722 13.023 13.4656C13.2805 13.359 13.5005 13.1784 13.6553 12.9467C13.8102 12.715 13.8928 12.4426 13.8928 12.1639C13.8936 11.9787 13.8577 11.7951 13.7871 11.6239C13.7166 11.4526 13.6128 11.2969 13.4819 11.1659C13.3509 11.035 13.1953 10.9312 13.024 10.8607C12.8527 10.7902 12.6691 10.7542 12.4839 10.755" fill="white"/>
<path d="M13.5524 8.8119H6.3141L3.49975 0.440215C3.46648 0.311052 3.39022 0.197086 3.28352 0.117058C3.17681 0.0370294 3.04602 -0.00429067 2.9127 -7.24821e-05H0.605604C0.449909 -7.24821e-05 0.300599 0.0617857 0.190506 0.171879C0.0804129 0.281972 0.0185547 0.431282 0.0185547 0.586977C0.0185547 0.742672 0.0804129 0.892 0.190506 1.00209C0.300599 1.11219 0.449909 1.17403 0.605604 1.17403H2.45482L5.27505 9.53983C5.30719 9.67008 5.38297 9.78541 5.48978 9.86659C5.59659 9.94777 5.728 9.9899 5.8621 9.98599H13.5583C13.714 9.98599 13.8633 9.92414 13.9734 9.81404C14.0835 9.70395 14.1454 9.55464 14.1454 9.39894C14.1454 9.24325 14.0835 9.09394 13.9734 8.98385C13.8633 8.87375 13.714 8.8119 13.5583 8.8119" fill="white"/>
<path d="M6.77171 10.755C6.49305 10.755 6.22065 10.8377 5.98895 10.9925C5.75726 11.1473 5.57669 11.3673 5.47005 11.6248C5.36341 11.8822 5.3355 12.1655 5.38986 12.4388C5.44423 12.7121 5.57839 12.9631 5.77544 13.1602C5.97248 13.3572 6.22355 13.4914 6.49685 13.5458C6.77015 13.6001 7.05344 13.5722 7.31089 13.4656C7.56833 13.359 7.78838 13.1784 7.94319 12.9467C8.098 12.715 8.18064 12.4426 8.18064 12.1639C8.18142 11.9787 8.1455 11.7951 8.07497 11.6239C8.00445 11.4526 7.90068 11.2969 7.7697 11.1659C7.63871 11.035 7.48307 10.9312 7.31178 10.8607C7.14049 10.7902 6.95695 10.7542 6.77171 10.755" fill="white"/>
<path d="M14.2215 2.0314H5.87366C5.76551 2.0317 5.65896 2.05753 5.56269 2.10679C5.46641 2.15606 5.38312 2.22738 5.31961 2.31491C5.2561 2.40245 5.21417 2.50374 5.19721 2.61055C5.18026 2.71737 5.18877 2.82669 5.22204 2.92959L6.7073 7.59662C6.73837 7.69369 6.79943 7.7784 6.88172 7.83853C6.96401 7.89867 7.06326 7.93113 7.16518 7.93125H13.2294C13.3356 7.93191 13.439 7.89702 13.523 7.83212C13.6071 7.76722 13.6669 7.67606 13.6932 7.57315L14.9142 2.87676C14.9412 2.77511 14.9445 2.66861 14.9238 2.5655C14.9031 2.46239 14.859 2.36542 14.7949 2.28204C14.7308 2.19866 14.6484 2.1311 14.5541 2.0846C14.4598 2.03809 14.356 2.01387 14.2509 2.01379" fill="white"/>
</svg>
