<svg width="14" height="13" viewBox="0 0 14 13" fill="none" xmlns="http://www.w3.org/2000/svg">
<path d="M13.4778 3.79076L7.14927 0.0364747C7.11036 0.0126459 7.06523 0 7.01921 0C6.97319 0 6.92812 0.0126459 6.88922 0.0364747L0.560725 3.79076C0.383703 3.89266 0.472209 4.13401 0.693486 4.13401H1.30752V4.9385C1.31318 5.00728 1.34655 5.07115 1.40037 5.11631C1.4542 5.16147 1.52416 5.18428 1.59519 5.17984H2.14839V11.0794H1.59519C1.52416 11.075 1.4542 11.0978 1.40037 11.143C1.34655 11.1881 1.31318 11.252 1.30752 11.3208V11.5997H1.08069C1.00673 11.5952 0.933936 11.6192 0.878041 11.6663C0.822146 11.7135 0.787686 11.7801 0.782016 11.8517V12.7474C0.787686 12.819 0.822146 12.8856 0.878041 12.9328C0.933936 12.98 1.00673 13.0039 1.08069 12.9995H12.8803C12.9543 13.0039 13.0271 12.98 13.083 12.9328C13.1389 12.8856 13.1733 12.819 13.179 12.7474V11.8517C13.1733 11.7801 13.1389 11.7135 13.083 11.6663C13.0271 11.6192 12.9543 11.5952 12.8803 11.5997H12.6535V11.3208C12.6514 11.2869 12.6424 11.2539 12.6271 11.2234C12.6118 11.1929 12.5904 11.1657 12.5642 11.1433C12.538 11.1209 12.5074 11.1037 12.4744 11.0927C12.4413 11.0818 12.4063 11.0772 12.3714 11.0794H11.9731V5.17984H12.3714C12.4063 5.18202 12.4413 5.1775 12.4744 5.16654C12.5074 5.15558 12.538 5.1384 12.5642 5.11598C12.5904 5.09355 12.6118 5.06633 12.6271 5.03587C12.6424 5.00542 12.6514 4.97233 12.6535 4.9385V4.13401H13.3062C13.5275 4.13401 13.6161 3.89266 13.4391 3.79076H13.4778ZM6.24756 5.17448H7.90714V11.0741H6.24756V5.17448ZM3.60329 5.17448H5.0748V11.0741H3.60329V5.17448ZM10.4739 11.0741H9.05222V5.17448H10.5127L10.4739 11.0741Z" fill="white"/>
</svg>
