<svg width="16" height="13" viewBox="0 0 16 13" fill="none" xmlns="http://www.w3.org/2000/svg">
<path d="M5.88051 2.71097C5.83522 2.70821 5.78979 2.70821 5.7445 2.71097C5.83211 2.49077 5.87815 2.25748 5.88051 2.02193C5.88051 1.48568 5.6575 0.971392 5.26043 0.592207C4.86336 0.213022 4.32478 0 3.76324 0C3.20169 0 2.66319 0.213022 2.26612 0.592207C1.86905 0.971392 1.64596 1.48568 1.64596 2.02193C1.64729 2.2636 1.69541 2.50295 1.7879 2.72791C1.39883 2.78628 1.03458 2.94741 0.736372 3.19309C0.438164 3.43877 0.217839 3.7592 0.10033 4.11817C-0.0171792 4.47715 -0.0271369 4.86035 0.0714517 5.22448C0.17004 5.58861 0.373269 5.91915 0.658256 6.17875C0.351378 6.45675 0.139039 6.81636 0.0487101 7.21098C-0.0416186 7.60559 -0.0057636 8.01703 0.151661 8.39195C0.309085 8.76687 0.580792 9.08799 0.931588 9.3137C1.28238 9.53941 1.69607 9.6593 2.11906 9.65782C2.65302 9.65381 3.16434 9.45121 3.54441 9.09304V12.5156C3.53711 12.5765 3.54335 12.6382 3.56275 12.6966C3.58216 12.755 3.61432 12.8089 3.65704 12.8546C3.69976 12.9003 3.7521 12.9369 3.81067 12.962C3.86924 12.987 3.93269 13 3.99686 13C4.06104 13 4.12449 12.987 4.18305 12.962C4.24162 12.9369 4.29397 12.9003 4.33669 12.8546C4.37941 12.8089 4.41157 12.755 4.43097 12.6966C4.45038 12.6382 4.45661 12.5765 4.44931 12.5156V9.09304C4.83225 9.45055 5.345 9.65291 5.88051 9.65782C6.303 9.65816 6.71594 9.53745 7.06582 9.31131C7.4157 9.08517 7.68646 8.764 7.84315 8.38932C7.99983 8.01464 8.03523 7.60368 7.94473 7.2096C7.85422 6.81551 7.64198 6.45642 7.33547 6.17875C7.64409 5.90144 7.85818 5.54188 7.94992 5.14681C8.04167 4.75174 8.0068 4.33945 7.84986 3.96356C7.69292 3.58767 7.42115 3.26556 7.06993 3.03915C6.71872 2.81273 6.30427 2.69248 5.88051 2.69403" fill="white"/>
<path d="M15.9573 9.65885L14.6844 7.48114H15.1299C15.1759 7.48075 15.221 7.46858 15.2608 7.4458C15.3006 7.42303 15.3337 7.39044 15.357 7.3512C15.3803 7.31196 15.393 7.2674 15.3938 7.22188C15.3945 7.17636 15.3833 7.13143 15.3613 7.09145L14.0654 4.87363H14.5919C14.6299 4.87388 14.6673 4.86412 14.7002 4.84535C14.7331 4.82657 14.7604 4.79946 14.7792 4.76679C14.798 4.73412 14.8078 4.69707 14.8074 4.65945C14.807 4.62183 14.7965 4.58498 14.777 4.5527L12.1851 0.10559C12.1663 0.0734712 12.1393 0.0468113 12.1068 0.0282798C12.0743 0.00974829 12.0375 0 12 0C11.9625 0 11.9257 0.00974829 11.8932 0.0282798C11.8607 0.0468113 11.8337 0.0734712 11.8149 0.10559L9.22299 4.5527C9.20528 4.58525 9.19625 4.62174 9.19672 4.65871C9.19718 4.69569 9.20715 4.73195 9.22567 4.76406C9.24419 4.79617 9.27065 4.82307 9.30258 4.84224C9.33451 4.86141 9.37079 4.87222 9.40809 4.87363H9.93459L8.64444 7.09145C8.62086 7.13073 8.60822 7.17552 8.60786 7.22123C8.6075 7.26693 8.61944 7.31191 8.6424 7.35156C8.66535 7.39121 8.6985 7.42411 8.73851 7.44688C8.77852 7.46965 8.82394 7.48147 8.87008 7.48114H9.31558L8.04273 9.65885C8.01507 9.70514 8.00035 9.75787 8.00001 9.81166C7.99966 9.86545 8.01369 9.91836 8.04076 9.965C8.06782 10.0116 8.10693 10.0503 8.15404 10.0771C8.20114 10.1038 8.25461 10.1177 8.30891 10.1173H11.4793V12.5873C11.4921 12.7008 11.5467 12.8056 11.6326 12.8818C11.7185 12.9579 11.8297 13 11.945 13C12.0603 13 12.1715 12.9579 12.2575 12.8818C12.3434 12.8056 12.398 12.7008 12.4108 12.5873V10.1173H15.6912C15.7455 10.1177 15.7989 10.1038 15.846 10.0771C15.8931 10.0503 15.9322 10.0116 15.9592 9.965C15.9863 9.91836 16.0003 9.86545 16 9.81166C15.9996 9.75787 15.9849 9.70514 15.9573 9.65885Z" fill="white"/>
</svg>
