<svg width="10" height="16" viewBox="0 0 10 16" fill="none" xmlns="http://www.w3.org/2000/svg">
<path d="M9.92525 13.6339C9.65543 13.055 9.44783 12.4496 9.3059 11.8275C8.70793 9.41735 9.42336 5.80471 6.63638 4.56518C6.34894 4.4373 6.04816 4.34137 5.73946 4.27913V0.804205C5.7482 0.701906 5.73538 0.59893 5.70192 0.50178C5.66846 0.40463 5.61506 0.315432 5.54505 0.239833C5.47504 0.164234 5.38998 0.103878 5.29524 0.0625931C5.20049 0.0213087 5.09813 0 4.99466 0C4.89118 0 4.78882 0.0213087 4.69407 0.0625931C4.59933 0.103878 4.51428 0.164234 4.44426 0.239833C4.37425 0.315432 4.32079 0.40463 4.28732 0.50178C4.25386 0.59893 4.24111 0.701906 4.24985 0.804205V4.27913C3.93967 4.3423 3.63721 4.43819 3.34758 4.56518C0.55527 5.80471 1.2707 9.41735 0.678068 11.8275C0.536141 12.4496 0.328534 13.055 0.0587215 13.6339C0.0215787 13.6947 0.00132356 13.7641 0 13.8352C0.00517564 13.8781 0.0216999 13.9188 0.0479679 13.9532C0.0742359 13.9877 0.109254 14.0146 0.149443 14.0312C0.213931 14.0636 0.282023 14.0885 0.352329 14.1053C1.35825 14.3531 2.3806 14.5301 3.41165 14.635C3.46605 15.0138 3.65634 15.3605 3.94764 15.6112C4.23894 15.862 4.61167 16 4.99733 16C5.38298 16 5.75565 15.862 6.04695 15.6112C6.33825 15.3605 6.5286 15.0138 6.583 14.635C7.61581 14.5301 8.63988 14.3531 9.6476 14.1053C9.71759 14.0875 9.78557 14.0626 9.85049 14.0312C9.89008 14.0137 9.92459 13.9866 9.95073 13.9523C9.97687 13.918 9.99381 13.8777 10 13.8352C9.99868 13.7641 9.97842 13.6947 9.94128 13.6339H9.92525ZM4.99733 15.2707C4.82918 15.2715 4.66481 15.2212 4.52638 15.1265C4.38796 15.0318 4.28209 14.8972 4.22313 14.741C4.47406 14.741 4.71967 14.741 4.97061 14.741H5.02398C5.27492 14.741 5.52587 14.741 5.77681 14.741C5.71688 14.8976 5.61009 15.0324 5.47075 15.1271C5.33141 15.2217 5.16621 15.2719 4.99733 15.2707Z" fill="white"/>
</svg>
