<svg width="19" height="19" viewBox="0 0 19 19" fill="none" xmlns="http://www.w3.org/2000/svg">
<g opacity="0.3">
<path d="M12.3343 9.50018C12.3343 11.0677 11.0677 12.3343 9.50018 12.3343C7.93268 12.3343 6.66602 11.0677 6.66602 9.50018C6.66602 7.93268 7.93268 6.66602 9.50018 6.66602C11.0677 6.66602 12.3343 7.93268 12.3343 9.50018Z" stroke="#292D32" stroke-linecap="round" stroke-linejoin="round"/>
<path d="M9.50036 16.0469C12.2949 16.0469 14.8995 14.4002 16.7124 11.5502C17.4249 10.434 17.4249 8.55774 16.7124 7.44149C14.8995 4.59149 12.2949 2.94482 9.50036 2.94482C6.70578 2.94482 4.1012 4.59149 2.28828 7.44149C1.57578 8.55774 1.57578 10.434 2.28828 11.5502C4.1012 14.4002 6.70578 16.0469 9.50036 16.0469Z" stroke="#292D32" stroke-linecap="round" stroke-linejoin="round"/>
</g>
</svg>
