<svg width="42" height="42" viewBox="0 0 42 42" fill="none" xmlns="http://www.w3.org/2000/svg">
<path d="M18.339 22.4035C18.2183 22.3716 17.9905 22.3555 17.6621 22.3555H16.2734V24.276H17.6759C18.1412 24.276 18.4745 24.1897 18.6667 24.0193C18.8572 23.8508 18.9538 23.6077 18.9538 23.2965C18.9538 23.071 18.8971 22.877 18.785 22.7192C18.6714 22.5606 18.5211 22.4541 18.339 22.4035L18.339 22.4035Z" fill="#003062"/>
<path d="M23.5181 22.4687C23.3229 22.3939 23.0072 22.356 22.579 22.356H21.4453V26.5332H22.5998C22.9591 26.5332 23.2448 26.4992 23.4494 26.4324C23.6503 26.3675 23.8139 26.2735 23.936 26.1528C24.1073 25.9792 24.2416 25.7469 24.3346 25.4633C24.43 25.172 24.4785 24.8152 24.4785 24.4035C24.4785 23.8344 24.3841 23.3898 24.1982 23.0814C24.0112 22.776 23.7825 22.5697 23.5181 22.4687L23.5181 22.4687Z" fill="#003062"/>
<path d="M10.5506 27.4442V21.4394C10.5506 19.9947 11.726 18.8193 13.1707 18.8193H30.7231V12.0555L30.6804 12.0128C30.6511 12.1256 30.5494 12.2092 30.4273 12.2092H24.4315C24.2864 12.2092 24.169 12.0918 24.169 11.9467V5.76795C24.169 5.7267 24.1793 5.68826 24.1962 5.65381H10.3866C8.83385 5.65381 7.57031 6.91801 7.57031 8.47219V33.7496C7.57031 35.3033 8.83361 36.5673 10.3866 36.5673H30.7236V30.0645H13.1712C11.7265 30.0642 10.5511 28.8888 10.5511 27.4441L10.5506 27.4442Z" fill="#629A82"/>
<path d="M24.6953 6.02539V11.6848H30.3534L24.6953 6.02539Z" fill="#548D75"/>
<path d="M13.1732 19.3447H32.4008C33.556 19.3447 34.4961 20.2846 34.4959 21.4398V27.4446C34.4959 28.5999 33.556 29.5397 32.4008 29.5397H13.1732C12.018 29.5397 11.0781 28.5999 11.0781 27.4446V21.4398C11.0781 20.2846 12.018 19.3447 13.1732 19.3447Z" fill="#548D75"/>
<path d="M17.04 22.3137L18.3337 24.1552L19.6274 22.3137H20.4458L18.7561 24.6898L20.393 27H19.5746L18.3337 25.2245L17.0928 27H16.2677L17.9047 24.6898L16.2149 22.3137H17.04ZM21.6974 27V22.3137H22.4367V26.3466H24.9515V27H21.6974ZM29.0503 23.4159C29.0062 23.3675 28.9424 23.3169 28.8588 23.2641C28.7752 23.2069 28.6762 23.1541 28.5618 23.1057C28.4474 23.0573 28.3242 23.0177 28.1922 22.9869C28.0602 22.9561 27.9238 22.9407 27.783 22.9407C27.4749 22.9407 27.2461 22.9979 27.0965 23.1123C26.9469 23.2267 26.8721 23.3851 26.8721 23.5876C26.8721 23.7372 26.9139 23.856 26.9975 23.944C27.0811 24.0276 27.2087 24.098 27.3803 24.1552C27.5519 24.2124 27.7676 24.274 28.0272 24.34C28.344 24.4148 28.619 24.505 28.8522 24.6106C29.0855 24.7118 29.2637 24.8482 29.3869 25.0199C29.5101 25.1915 29.5717 25.4181 29.5717 25.6997C29.5717 25.9373 29.5277 26.1419 29.4397 26.3136C29.3517 26.4852 29.2285 26.626 29.0701 26.736C28.9116 26.8416 28.729 26.9208 28.5222 26.9736C28.3154 27.022 28.0932 27.0462 27.8556 27.0462C27.6224 27.0462 27.3891 27.022 27.1559 26.9736C26.9271 26.9252 26.7071 26.8548 26.4959 26.7624C26.2891 26.6656 26.0976 26.549 25.9216 26.4126L26.2583 25.7789C26.3155 25.8361 26.3969 25.8999 26.5025 25.9703C26.6125 26.0363 26.7379 26.1001 26.8787 26.1617C27.0239 26.2233 27.1801 26.2761 27.3473 26.3202C27.5189 26.3598 27.6928 26.3796 27.8688 26.3796C28.1636 26.3796 28.388 26.329 28.542 26.2277C28.7004 26.1221 28.7796 25.9725 28.7796 25.7789C28.7796 25.6205 28.729 25.4951 28.6278 25.4027C28.5266 25.3059 28.3792 25.2245 28.1856 25.1585C27.992 25.0925 27.761 25.0265 27.4925 24.9605C27.1845 24.8769 26.9271 24.7866 26.7203 24.6898C26.5135 24.5886 26.3573 24.461 26.2517 24.307C26.1504 24.1486 26.0998 23.9484 26.0998 23.7064C26.0998 23.3983 26.1747 23.1387 26.3243 22.9275C26.4739 22.7119 26.6763 22.5513 26.9315 22.4457C27.1911 22.3357 27.4815 22.2807 27.8028 22.2807C28.014 22.2807 28.2142 22.3049 28.4034 22.3533C28.5926 22.3973 28.7686 22.4589 28.9314 22.5381C29.0987 22.6173 29.2505 22.7075 29.3869 22.8087L29.0503 23.4159Z" fill="white"/>
</svg>
