<svg width="28" height="35" viewBox="0 0 28 35" fill="none" xmlns="http://www.w3.org/2000/svg">
<path d="M20.8516 1.31616V6.49754H26.1537L20.8516 1.31616Z" fill="white"/>
<path d="M20.3325 24.8691C18.7703 24.8691 17.5 26.1107 17.5 27.6372C17.5 29.1639 18.7704 30.4053 20.3325 30.4053C21.8946 30.4053 23.1649 29.1638 23.1649 27.6372C23.1649 26.1109 21.8945 24.8691 20.3325 24.8691Z" fill="white"/>
<path d="M20.1176 7.93261C19.7105 7.93261 19.3862 7.61011 19.3862 7.21777V0.300293H0.8125V34.7003H27.1848V7.93279L20.1176 7.93261ZM13.1543 17.0861H3.98597C3.57887 17.0861 3.2545 16.7636 3.2545 16.3712C3.2545 15.9734 3.5845 15.6564 3.98597 15.6564H13.1543C13.5614 15.6564 13.8858 15.9789 13.8858 16.3712C13.8858 16.7636 13.5558 17.0861 13.1541 17.0861H13.1543ZM13.1543 13.6837H3.98597C3.57887 13.6837 3.2545 13.3612 3.2545 12.9689C3.2545 12.5765 3.5845 12.254 3.98597 12.254H13.1543C13.5614 12.254 13.8858 12.5765 13.8858 12.9689C13.8858 13.3612 13.5558 13.6837 13.1541 13.6837H13.1543ZM13.1543 10.2814H3.98597C3.57887 10.2814 3.2545 9.95889 3.2545 9.56655C3.2545 9.1687 3.5845 8.8517 3.98597 8.8517H13.1543C13.5614 8.8517 13.8858 9.1742 13.8858 9.56655C13.8858 9.95887 13.5558 10.2814 13.1541 10.2814H13.1543ZM20.332 31.8355C17.9616 31.8355 16.0309 29.9489 16.0309 27.6321C16.0309 25.3156 17.9613 23.4344 20.332 23.4344C22.7024 23.4344 24.633 25.3156 24.633 27.6321C24.633 29.9487 22.7026 31.8355 20.332 31.8355Z" fill="white"/>
</svg>
