<svg width="37" height="37" viewBox="0 0 37 37" fill="none" xmlns="http://www.w3.org/2000/svg">
<path fill-rule="evenodd" clip-rule="evenodd" d="M0.96875 18.1613C0.96875 8.06702 8.82046 -0.116699 18.5052 -0.116699C28.19 -0.116699 36.0417 8.06622 36.0417 18.1613C36.0417 28.2564 28.19 36.4393 18.5052 36.4393C8.82046 36.4393 0.96875 28.2564 0.96875 18.1613ZM15.3579 9.03194C14.6127 9.03194 14.0089 9.66119 14.0089 10.4379V16.5305H13.1095C12.3646 16.5305 11.7606 17.1601 11.7606 17.9365C11.7606 18.7129 12.3646 19.3425 13.1095 19.3425H14.0089V21.2171H13.1095C12.3646 21.2171 11.7606 21.8466 11.7606 22.6231C11.7606 23.3995 12.3646 24.0291 13.1095 24.0291H14.0089V26.3725C14.0089 27.1489 14.6127 27.7785 15.3579 27.7785C16.1028 27.7785 16.7069 27.1489 16.7069 26.3725V24.0291H22.1027C22.8476 24.0291 23.4516 23.3995 23.4516 22.6231C23.4516 21.8466 22.8476 21.2171 22.1027 21.2171H16.7069V19.3425H19.8543C22.7862 19.3425 25.6997 17.311 25.6997 14.1871C25.6997 11.0634 22.7862 9.03194 19.8543 9.03194H15.3579ZM19.8543 16.5305H16.7069V11.8439H19.8543C21.8892 11.8439 23.0018 13.1696 23.0018 14.1871C23.0018 15.2048 21.8892 16.5305 19.8543 16.5305Z" fill="white"/>
</svg>
