<svg width="51" height="32" viewBox="0 0 51 32" fill="none" xmlns="http://www.w3.org/2000/svg">
<path d="M50.2349 13.3383C49.9331 12.6215 49.0983 12.2819 48.3724 12.5782C43.5467 14.5496 39.6712 14.6694 36.674 14.0089C36.6016 13.9861 36.5284 13.9724 36.4549 13.9622C31.3407 12.7539 28.8637 9.27505 28.6958 9.03064C28.258 8.38669 27.3732 8.21289 26.7217 8.64169C26.066 9.07162 25.8869 9.94359 26.3236 10.5891C26.3656 10.6521 28.8418 14.1948 33.8389 16.053C33.1943 17.8581 32.1 21.3252 31.8054 24.8027C31.8054 24.8027 32.1019 24.8592 32.6021 24.9385C32.358 27.3121 32.2956 29.121 32.2918 29.2917C32.2675 30.0673 32.8859 30.7146 33.6718 30.7386C33.6868 30.7386 33.7022 30.7398 33.7164 30.7398C34.4838 30.7398 35.1156 30.1391 35.1399 29.3786C35.1414 29.3384 35.2011 27.5849 35.4329 25.2849C36.2338 25.3551 37.106 25.4078 37.9907 25.4154C39.6838 29.2094 41.9586 31.0949 42.1146 31.2209C42.3791 31.433 42.6975 31.5362 43.0133 31.5362C43.4272 31.5362 43.8373 31.3602 44.1206 31.019C44.617 30.4179 44.5253 29.5334 43.9146 29.0427C43.8865 29.0204 42.389 27.7731 41.0538 25.2211C41.8416 25.0967 42.5678 24.9058 43.1773 24.6227C43.1773 24.6227 41.763 20.3655 41.6676 17.1013C43.9963 16.9256 46.5919 16.3458 49.464 15.1729C50.1925 14.8769 50.5376 14.0545 50.2349 13.3381L50.2349 13.3383ZM24.2899 8.64738C23.6373 8.21668 22.7536 8.38782 22.3139 9.02912C22.1549 9.26135 19.6783 12.7528 14.5533 13.9625C14.4786 13.9735 14.4047 13.9876 14.3319 14.01C11.3352 14.6695 7.46083 14.5492 2.63546 12.5783C1.90849 12.2811 1.07369 12.6211 0.773346 13.3383C0.471471 14.0548 0.816471 14.8775 1.54382 15.1738C5.06351 16.6117 8.17157 17.1687 10.8758 17.1687C10.9073 17.1687 10.9366 17.1645 10.9678 17.1645C11.1457 18.2946 11.3455 19.9858 11.3089 21.7704C9.99282 26.5961 7.24751 28.9176 7.08654 29.0486C6.48087 29.5381 6.39115 30.4199 6.88671 31.0207C7.16895 31.3618 7.57824 31.5379 7.99258 31.5379C8.30947 31.5379 8.62752 31.4347 8.89243 31.2225C9.07571 31.0749 12.2077 28.476 13.8549 23.1772C14.325 23.088 14.8152 23.0189 15.2985 22.9878C15.7632 26.3161 15.8664 29.3264 15.868 29.3791C15.8922 30.1392 16.5249 30.7407 17.2914 30.7407C17.3065 30.7407 17.3207 30.7396 17.3369 30.7396C18.1224 30.7156 18.7399 30.0683 18.7165 29.2926C18.7103 29.0718 18.6098 26.1211 18.1412 22.7434C18.1505 21.2039 18.1378 18.1568 17.9402 15.7469C22.421 13.8313 24.6451 10.6491 24.6851 10.5892C25.119 9.94487 24.9419 9.07815 24.29 8.64751L24.2899 8.64738ZM12.7945 13.569C15.749 13.569 18.1436 11.2091 18.1436 8.29747C18.1436 5.3858 15.749 3.02591 12.7945 3.02591C9.84006 3.02591 7.44506 5.3858 7.44506 8.29747C7.44506 11.2091 9.84084 13.569 12.7945 13.569ZM34.91 4.28887C35.014 4.47063 34.9886 4.70134 34.8503 4.85996C34.2886 5.50202 33.8804 6.28407 33.6863 7.18002C33.0444 10.1421 35.0621 13.0542 38.1536 13.5003C40.9162 13.8984 43.5746 12.0629 44.1515 9.37137C44.3413 8.48646 44.2924 7.61105 44.0467 6.80204C43.987 6.60396 44.0598 6.38538 44.2277 6.2613C45.7517 5.12978 44.3159 10.3827 49.7774 9.1923C46.409 8.41553 48.0793 5.37789 47.6654 4.15107C47.2692 3.00284 45.1907 1.98206 43.3266 4.89899C43.2593 5.006 43.1079 5.01473 43.0271 4.91759C42.2878 4.03191 41.2639 3.38603 40.0376 3.12724C38.8204 2.87035 37.6099 3.04566 36.5761 3.54921C36.4617 3.60537 36.3281 3.53669 36.3104 3.41222C35.8114 0.00464135 33.4892 0.0976075 32.6517 0.986659C31.7642 1.93912 32.0276 5.38432 28.6315 4.73579C33.1076 8.0201 33.9844 2.66548 34.91 4.28878L34.91 4.28887Z" fill="white"/>
</svg>
