<svg width="10" height="14" viewBox="0 0 10 14" fill="none" xmlns="http://www.w3.org/2000/svg">
<path d="M0.286967 3.47077L9.18935 1.3191C9.21741 1.31274 9.24387 1.30078 9.2672 1.28393C9.29053 1.26708 9.3102 1.2457 9.32506 1.22106C9.33993 1.19643 9.34968 1.16905 9.35372 1.14056C9.35775 1.11207 9.356 1.08306 9.34855 1.05527C9.33457 0.999231 9.29893 0.95101 9.24949 0.92117C9.20004 0.891331 9.14082 0.8823 9.08473 0.89605L0.182349 3.05682C0.154288 3.06318 0.127823 3.07515 0.104497 3.09199C0.0811702 3.10884 0.0614455 3.13022 0.0465793 3.15485C0.031713 3.17949 0.022013 3.20687 0.0179816 3.23536C0.0139501 3.26385 0.0156985 3.29286 0.0231458 3.32066C0.0342893 3.36801 0.0609235 3.41029 0.0988325 3.44078C0.136742 3.47127 0.183736 3.48823 0.232381 3.48897H0.286967" fill="white"/>
<path d="M3.31668 2.01069C3.43634 2.01069 3.55331 1.97521 3.6528 1.90873C3.7523 1.84225 3.82985 1.74776 3.87564 1.6372C3.92143 1.52665 3.93341 1.40501 3.91007 1.28765C3.88673 1.17028 3.82909 1.06248 3.74448 0.977867C3.65987 0.893254 3.5521 0.835629 3.43474 0.812285C3.31738 0.78894 3.19573 0.800921 3.08518 0.846713C2.97463 0.892505 2.88012 0.970052 2.81364 1.06955C2.74716 1.16904 2.71169 1.28601 2.71169 1.40567C2.71108 1.48529 2.72631 1.56424 2.7565 1.63792C2.78669 1.7116 2.83125 1.77853 2.88755 1.83483C2.94385 1.89114 3.01078 1.93568 3.08446 1.96587C3.15813 1.99606 3.23706 2.01129 3.31668 2.01069Z" fill="white"/>
<path d="M4.8268 1.5738C4.94646 1.5738 5.06348 1.53831 5.16297 1.47183C5.26247 1.40535 5.33996 1.31087 5.38576 1.20031C5.43155 1.08976 5.44353 0.96811 5.42018 0.850749C5.39684 0.733387 5.33926 0.625583 5.25465 0.54097C5.17004 0.456358 5.06221 0.39874 4.94485 0.375395C4.82749 0.352051 4.70585 0.364031 4.59529 0.409823C4.48474 0.455615 4.39023 0.533162 4.32375 0.632656C4.25727 0.73215 4.2218 0.849123 4.2218 0.968783C4.2218 1.12924 4.28553 1.28313 4.399 1.39659C4.51246 1.51005 4.66634 1.5738 4.8268 1.5738Z" fill="white"/>
<path d="M6.43263 1.21003C6.55229 1.21003 6.66926 1.17454 6.76875 1.10806C6.86824 1.04158 6.9458 0.947097 6.99159 0.836545C7.03738 0.725993 7.04936 0.604341 7.02602 0.486979C7.00267 0.369618 6.94504 0.261814 6.86043 0.177201C6.77582 0.092588 6.66805 0.0349702 6.55069 0.0116256C6.43332 -0.011719 6.31168 0.000261789 6.20113 0.0460539C6.09058 0.091846 5.99607 0.169393 5.92959 0.268887C5.86311 0.368381 5.82764 0.485354 5.82764 0.605014C5.82764 0.765474 5.89137 0.919359 6.00483 1.03282C6.11829 1.14628 6.27217 1.21003 6.43263 1.21003Z" fill="white"/>
<path d="M9.48044 10.5763C9.23712 9.21838 8.8545 7.88912 8.33864 6.60962C8.19446 6.27005 7.96344 5.97441 7.66879 5.75242C7.37414 5.53044 7.02621 5.38992 6.66004 5.345C6.16731 5.27439 5.67028 5.23791 5.17251 5.23583V3.25702C5.16301 3.17623 5.12419 3.10173 5.0634 3.04767C5.00261 2.99361 4.92408 2.96375 4.84272 2.96375C4.76137 2.96375 4.68284 2.99361 4.62205 3.04767C4.56126 3.10173 4.52244 3.17623 4.51293 3.25702V5.25403C4.11262 5.25403 3.70775 5.32226 3.30289 5.38594C2.98102 5.43199 2.67423 5.55209 2.40664 5.7368C2.13906 5.92151 1.91796 6.16578 1.76078 6.45041C1.10655 7.69369 0.592403 9.00576 0.227777 10.3625C0.182333 10.5333 0.17634 10.7121 0.210229 10.8855C0.244119 11.0589 0.317027 11.2223 0.423407 11.3633L2.02466 13.5104C2.11496 13.6298 2.23003 13.7281 2.36194 13.7988C2.49386 13.8695 2.63947 13.9108 2.78885 13.9198C4.22586 14.0267 5.66882 14.0267 7.10583 13.9198C7.26506 13.9098 7.4199 13.8636 7.55862 13.7847C7.69734 13.7059 7.81629 13.5966 7.90646 13.4649L9.29392 11.4133C9.46484 11.1668 9.53185 10.8628 9.48044 10.5672V10.5763ZM3.46209 9.49367C3.46091 9.59706 3.41932 9.69588 3.3462 9.76899C3.27309 9.8421 3.17428 9.8837 3.07089 9.88488H2.48411C2.38035 9.88488 2.28083 9.84367 2.20746 9.77031C2.13409 9.69694 2.0929 9.59743 2.0929 9.49367V7.15095C2.0929 7.09979 2.10301 7.04913 2.12272 7.00192C2.14244 6.95471 2.17135 6.91188 2.20774 6.87592C2.24413 6.83995 2.2873 6.81156 2.33473 6.7924C2.38217 6.77324 2.43295 6.76368 2.48411 6.76428H3.07089C3.17386 6.76428 3.27269 6.80487 3.34593 6.87726C3.41916 6.94964 3.4609 7.04798 3.46209 7.15095V9.49367ZM5.95043 9.42089C5.95043 9.54154 5.90247 9.65724 5.81716 9.74255C5.73185 9.82786 5.61618 9.87579 5.49553 9.87579H4.49472C4.37407 9.87579 4.2584 9.82786 4.17309 9.74255C4.08778 9.65724 4.03982 9.54154 4.03982 9.42089V7.24193C4.03982 7.12128 4.08778 7.00558 4.17309 6.92027C4.2584 6.83496 4.37407 6.78703 4.49472 6.78703H5.49553C5.61618 6.78703 5.73185 6.83496 5.81716 6.92027C5.90247 7.00558 5.95043 7.12128 5.95043 7.24193V9.42089ZM7.87919 9.49367C7.8792 9.59664 7.83857 9.69547 7.76619 9.76871C7.6938 9.84195 7.5955 9.88369 7.49254 9.88488H6.90115C6.79776 9.8837 6.69895 9.8421 6.62583 9.76899C6.55272 9.69588 6.51113 9.59706 6.50994 9.49367V7.15095C6.51114 7.04798 6.55287 6.94964 6.62611 6.87726C6.69935 6.80487 6.79818 6.76428 6.90115 6.76428H7.49254C7.59509 6.76428 7.6934 6.80502 7.76591 6.87754C7.83842 6.95005 7.87919 7.0484 7.87919 7.15095V9.49367Z" fill="white"/>
</svg>
