<svg width="16" height="16" viewBox="0 0 16 16" fill="none" xmlns="http://www.w3.org/2000/svg">
<path d="M13.2534 13.96C12.6201 14.4267 11.7867 14.6667 10.7934 14.6667H5.20673C5.04673 14.6667 4.88673 14.66 4.7334 14.64L9.33339 10.04L13.2534 13.96Z" fill="white"/>
<path d="M14.6667 5.20661V10.7933C14.6667 11.7866 14.4267 12.6199 13.96 13.2533L10.04 9.33328L14.64 4.73328C14.66 4.88661 14.6667 5.04661 14.6667 5.20661Z" fill="white"/>
<path fill-rule="evenodd" clip-rule="evenodd" d="M13.2533 13.96C13.2796 13.9419 13.3054 13.9234 13.3308 13.9046C13.3054 13.9234 13.2795 13.9419 13.2533 13.96L9.33325 10.04L9.33331 10.04L13.2533 13.96ZM4.73326 14.64L4.73332 14.64C4.30665 14.6133 3.91998 14.5266 3.56665 14.3933L3.82664 14.1333L14.3932 3.56671C13.8733 2.14004 12.6066 1.33337 10.7933 1.33337H5.20658C2.77992 1.33337 1.33325 2.78004 1.33325 5.20671V10.7934C1.33325 12.6067 2.13992 13.8734 3.56659 14.3934C3.91992 14.5267 4.30659 14.6134 4.73326 14.64ZM6.07987 3.68665C6.93321 3.69331 7.90654 4.18665 8.15987 5.28665C8.43987 6.49998 7.69321 7.51998 7.01987 8.15998C6.75321 8.40665 6.41987 8.53332 6.07987 8.53332C5.73987 8.53332 5.40654 8.41331 5.13987 8.15998C4.46654 7.51998 3.71988 6.49998 3.99988 5.27998C4.25321 4.17998 5.22654 3.68665 6.07987 3.68665ZM5.4332 5.65998C5.4332 6.02665 5.7332 6.32665 6.09987 6.32665C6.46654 6.32665 6.77321 6.02665 6.77321 5.65998C6.77321 5.29331 6.47321 4.99331 6.10654 4.99331H6.09987C5.72654 4.99331 5.4332 5.29331 5.4332 5.65998Z" fill="white"/>
</svg>
