<svg width="14" height="9" viewBox="0 0 14 9" fill="none" xmlns="http://www.w3.org/2000/svg">
<path fill-rule="evenodd" clip-rule="evenodd" d="M10.1439 0.0478516C10.4704 0.0478516 10.9 0.219651 11.0889 0.460194C11.3123 1.21621 11.5357 1.98943 11.7418 2.76267C12.034 2.5393 13.6662 2.38469 13.6662 3.27813C13.6662 3.93103 13.0477 3.91385 12.6009 3.91385C12.7211 4.18878 12.8243 4.56674 12.8414 5.13379C12.8414 6.23341 12.8586 7.31588 12.8586 8.4155C12.8586 8.62167 12.6868 8.77628 12.4806 8.77628H10.8484C10.6594 8.77628 10.4876 8.62167 10.4876 8.4155V7.98596H3.49445V8.4155C3.49445 8.62167 3.33983 8.77628 3.13367 8.77628H1.50138C1.31239 8.77628 1.1406 8.62167 1.1406 8.4155C1.1406 7.31588 1.1406 6.23341 1.15779 5.13379C1.15779 4.56674 1.26091 4.18878 1.39834 3.91385C0.934436 3.91385 0.333008 3.93103 0.333008 3.26095C0.333008 2.45337 1.89655 2.48773 2.25739 2.76267C2.46356 1.98945 2.66973 1.21623 2.8931 0.460194C3.09927 0.219642 3.52881 0.0478516 3.83811 0.0478516H10.144H10.1439ZM11.003 2.69394C10.8312 2.04105 10.6422 1.38806 10.4704 0.752422H3.51151C3.33971 1.38814 3.16783 2.04111 2.99604 2.69394H11.003ZM2.92741 5.66651C2.85866 5.27135 2.80717 4.87611 2.73842 4.48095C3.44288 4.44658 4.07859 4.51533 4.6628 4.70432C4.90335 4.84175 5.09234 5.09948 5.26413 5.3916C5.35007 5.59777 5.35007 5.75238 5.1439 5.80394C4.38788 5.82113 3.64904 5.78675 2.92733 5.66651L2.92741 5.66651ZM11.0718 5.66651C11.1233 5.27135 11.192 4.87611 11.2436 4.48095C10.5563 4.44658 9.90341 4.51533 9.33635 4.70432C9.09579 4.84175 8.9068 5.09948 8.73501 5.3916C8.64908 5.59777 8.64908 5.75238 8.85525 5.80394C9.59409 5.82113 10.3329 5.78675 11.0718 5.66651L11.0718 5.66651Z" fill="#003062"/>
</svg>
