<svg width="92" height="92" viewBox="0 0 92 92" fill="none" xmlns="http://www.w3.org/2000/svg">
<path d="M85.0696 46.2238L89.4594 46.4781L89.3509 48.3515C89.3387 48.5617 89.2843 48.7509 89.1877 48.919C89.095 49.0915 88.9728 49.2374 88.8212 49.3568C88.6736 49.4765 88.5092 49.5662 88.3279 49.626C88.1466 49.6858 87.9632 49.7104 87.7777 49.6996C87.5263 49.685 87.2907 49.6114 87.0709 49.4787C86.8509 49.3502 86.6748 49.1766 86.5427 48.9581C86.4145 48.7438 86.3587 48.4945 86.3751 48.2101L86.4267 47.3198L85.0108 47.2377L85.0696 46.2238ZM87.3109 47.371L87.2629 48.1995C87.2583 48.2778 87.2768 48.3513 87.3183 48.4199C87.3599 48.4884 87.4248 48.546 87.5131 48.5924C87.6014 48.6389 87.7115 48.666 87.8434 48.6736C87.9794 48.6815 88.0921 48.6632 88.1815 48.6188C88.2748 48.5787 88.3443 48.5227 88.3898 48.4509C88.4351 48.3832 88.46 48.3102 88.4645 48.2319L88.5104 47.4405L87.3109 47.371Z" fill="white"/>
<path d="M84.8923 51.1329L89.2237 51.8906L89.0487 52.8911L85.5958 52.2871L85.2287 54.3857L84.3502 54.2321L84.8923 51.1329Z" fill="white"/>
<path d="M87.7956 57.9308L87.465 58.976L82.8169 59.0911L83.1306 58.099L84.1722 58.0711L84.5848 56.7661L83.7468 56.1504L84.0605 55.1583L87.7956 57.9308ZM84.8898 58.1227L86.6569 58.1424L85.2035 57.1307L84.8898 58.1227Z" fill="white"/>
<path d="M85.3646 63.3311L83.2013 63.3255L84.5246 65.0437L84.0365 66.0391L82.1241 63.3559L80.7785 62.696L81.223 61.7896L82.5798 62.455L85.85 62.3413L85.3646 63.3311Z" fill="white"/>
<path d="M75.1698 71.4095L78.3462 74.4503L77.0485 75.8058C76.9029 75.9579 76.7388 76.0666 76.5562 76.1319C76.3738 76.203 76.1861 76.2349 75.9932 76.2274C75.8033 76.2228 75.62 76.1844 75.4432 76.1124C75.2664 76.0403 75.1109 75.94 74.9767 75.8115C74.7948 75.6374 74.6632 75.4285 74.582 75.185C74.4979 74.9445 74.4764 74.6982 74.5177 74.4461C74.559 74.1999 74.6782 73.9739 74.8752 73.7681L75.4919 73.1239L74.4674 72.1432L75.1698 71.4095ZM76.1317 73.7364L75.5578 74.3358C75.5035 74.3925 75.47 74.4604 75.4571 74.5395C75.4442 74.6187 75.4563 74.7045 75.4934 74.7972C75.5304 74.8898 75.5967 74.9818 75.6921 75.0732C75.7905 75.1674 75.8882 75.2266 75.9851 75.2508C76.0821 75.2808 76.1712 75.2832 76.2525 75.2581C76.3308 75.2359 76.3971 75.1965 76.4514 75.1399L76.9996 74.5672L76.1317 73.7364Z" fill="white"/>
<path d="M72.0959 74.4325L74.8979 77.8214L74.1151 78.4686L71.8814 75.767L70.2395 77.1246L69.6712 76.4372L72.0959 74.4325Z" fill="white"/>
<path d="M70.3811 81.8442L69.4519 82.4259L65.8379 79.5006L66.7198 78.9485L67.531 79.6024L68.6911 78.8762L68.4521 77.864L69.334 77.312L70.3811 81.8442ZM68.0441 80.1069L69.3769 81.2672L68.926 79.5548L68.0441 80.1069Z" fill="white"/>
<path d="M64.7397 84.9791L63.0936 83.5755L62.9913 85.7418L61.9752 86.1851L62.2524 82.9019L61.6532 81.5281L62.5785 81.1245L63.1827 82.5096L65.7501 84.5383L64.7397 84.9791Z" fill="white"/>
<path d="M51.8147 84.8511L52.2548 89.2262L50.3877 89.414C50.1782 89.4351 49.9828 89.4112 49.8016 89.3423C49.6167 89.2779 49.4533 89.1802 49.3115 89.0492C49.1701 88.9224 49.0556 88.7741 48.968 88.6045C48.8804 88.4349 48.8273 88.2576 48.8087 88.0728C48.7835 87.8222 48.8191 87.5779 48.9155 87.34C49.0078 87.1025 49.1515 86.9013 49.3465 86.7364C49.5379 86.5761 49.7753 86.4817 50.0587 86.4531L50.9461 86.3639L50.8041 84.9528L51.8147 84.8511ZM51.0347 87.2451L50.209 87.3281C50.1309 87.336 50.0613 87.3658 50.0001 87.4176C49.9389 87.4694 49.8923 87.5426 49.8604 87.6371C49.8284 87.7316 49.819 87.8446 49.8322 87.976C49.8458 88.1116 49.8816 88.22 49.9396 88.3013C49.9939 88.3872 50.0601 88.4469 50.1382 88.4806C50.2121 88.5146 50.2881 88.5277 50.3662 88.5199L51.155 88.4405L51.0347 87.2451Z" fill="white"/>
<path d="M46.6906 84.7207L46.6057 89.1171L45.5902 89.0975L45.6579 85.5928L43.5278 85.5516L43.545 84.66L46.6906 84.7207Z" fill="white"/>
<path d="M40.7419 88.8602L39.658 88.6961L38.8218 84.1223L39.8506 84.278L40.04 85.3026L41.3933 85.5074L41.8713 84.5838L42.9001 84.7395L40.7419 88.8602ZM40.1007 86.0196L40.3559 87.7682L41.1294 86.1753L40.1007 86.0196Z" fill="white"/>
<path d="M34.1137 87.5406L33.7804 85.4032L32.2906 86.9792L31.2311 86.653L33.5816 84.344L34.0227 82.9116L34.9875 83.2087L34.5428 84.653L35.1672 87.865L34.1137 87.5406Z" fill="white"/>
<path d="M24.317 79.1777L21.809 82.7895L20.2676 81.7191C20.0947 81.599 19.9617 81.4539 19.8687 81.2838C19.77 81.1147 19.7093 80.9343 19.6866 80.7426C19.6615 80.5543 19.6708 80.3672 19.7144 80.1813C19.758 79.9955 19.8328 79.8262 19.9388 79.6736C20.0824 79.4667 20.2682 79.3042 20.496 79.186C20.7205 79.0654 20.9605 79.0058 21.2158 79.0072C21.4655 79.0096 21.7073 79.0921 21.9413 79.2546L22.6738 79.7633L23.4828 78.5983L24.317 79.1777ZM22.1687 80.4907L21.487 80.0174C21.4226 79.9726 21.3503 79.9501 21.2701 79.9497C21.19 79.9493 21.107 79.9747 21.0213 80.0257C20.9356 80.0768 20.855 80.1566 20.7797 80.2651C20.702 80.377 20.6587 80.4827 20.65 80.5822C20.6355 80.6827 20.6469 80.7711 20.6844 80.8474C20.7185 80.9214 20.7678 80.9807 20.8323 81.0254L21.4834 81.4776L22.1687 80.4907Z" fill="white"/>
<path d="M20.4463 75.9727L17.5229 79.2575L16.7642 78.5822L19.0947 75.9637L17.5032 74.5473L18.0961 73.8811L20.4463 75.9727Z" fill="white"/>
<path d="M13.1043 74.845L12.3875 74.0156L14.7263 69.997L15.4066 70.7842L14.8843 71.6858L15.7793 72.7214L16.743 72.3305L17.4233 73.1178L13.1043 74.845ZM14.4641 72.27L13.521 73.7645L15.1445 73.0572L14.4641 72.27Z" fill="white"/>
<path d="M10.0279 70.3365L11.16 68.4931L9.00392 68.7271L8.4088 67.7918L11.6953 67.5578L12.9599 66.7533L13.5018 67.605L12.2268 68.4162L10.6197 71.2666L10.0279 70.3365Z" fill="white"/>
<path d="M8.9476 56.6232L4.69486 57.7411L4.21779 55.9262C4.16426 55.7226 4.15738 55.5258 4.19715 55.3361C4.23188 55.1434 4.30286 54.9668 4.41008 54.8063C4.51331 54.6468 4.64185 54.5105 4.79571 54.3975C4.94958 54.2845 5.11635 54.2044 5.29605 54.1571C5.53963 54.0931 5.78645 54.0901 6.03652 54.1482C6.28553 54.2023 6.50669 54.3128 6.69998 54.4797C6.88823 54.6436 7.01857 54.8634 7.091 55.1389L7.31772 56.0015L8.68938 55.6409L8.9476 56.6232ZM6.46119 56.2266L6.25021 55.424C6.23026 55.3481 6.18993 55.284 6.12921 55.2317C6.06849 55.1793 5.98896 55.1447 5.89061 55.1279C5.79227 55.111 5.6792 55.1194 5.55142 55.153C5.41965 55.1876 5.31813 55.2399 5.24687 55.3099C5.17056 55.3769 5.12189 55.4516 5.10086 55.534C5.07877 55.6124 5.0777 55.6895 5.09764 55.7654L5.29917 56.5321L6.46119 56.2266Z" fill="white"/>
<path d="M6.82553 52.6753L2.47054 53.2831L2.33013 52.2772L5.80186 51.7926L5.50736 49.6826L6.39062 49.5593L6.82553 52.6753Z" fill="white"/>
<path d="M2.53174 47.3943L2.52328 46.2981L6.90869 44.753L6.91672 45.7935L5.93465 46.1417L5.94522 47.5104L6.9325 47.8372L6.94053 48.8776L2.53174 47.3943ZM5.23613 46.3143L3.54939 46.8414L5.24416 47.3547L5.23613 46.3143Z" fill="white"/>
<path d="M2.74122 40.7444L4.80077 40.0827L3.01215 38.8562L3.16961 37.7589L5.81611 39.7216L7.29969 39.9344L7.1563 40.9337L5.66047 40.7191L2.58465 41.8356L2.74122 40.7444Z" fill="white"/>
<path d="M10.4015 30.3706L6.44642 28.449L7.2665 26.7611C7.35852 26.5717 7.48141 26.418 7.63518 26.2999C7.78704 26.1763 7.95593 26.0885 8.14184 26.0365C8.32404 25.9827 8.51033 25.9631 8.70069 25.9775C8.89105 25.992 9.06979 26.0398 9.23691 26.121C9.46344 26.2311 9.65268 26.3896 9.8046 26.5965C9.95834 26.7997 10.0542 27.0276 10.0921 27.2802C10.1282 27.5272 10.084 27.7788 9.95947 28.0351L9.56973 28.8372L10.8454 29.457L10.4015 30.3706ZM8.77314 28.4502L9.13581 27.7038C9.17009 27.6332 9.18124 27.5583 9.16926 27.479C9.15728 27.3998 9.11946 27.3217 9.0558 27.2449C8.99215 27.168 8.9009 27.1008 8.78206 27.043C8.65951 26.9835 8.54841 26.957 8.44877 26.9637C8.34722 26.9649 8.26164 26.9898 8.19202 27.0386C8.12421 27.0837 8.07317 27.1416 8.03888 27.2121L7.69245 27.9252L8.77314 28.4502Z" fill="white"/>
<path d="M12.3227 25.3629L8.62145 22.9888L9.16984 22.1339L12.1204 24.0265L13.2707 22.2332L14.0213 22.7147L12.3227 25.3629Z" fill="white"/>
<path d="M11.919 18.4256L12.6267 17.5884L16.9604 19.2732L16.2887 20.0678L15.3168 19.6922L14.4331 20.7374L14.9693 21.6286L14.2975 22.4231L11.919 18.4256ZM14.6744 19.3681L13.0513 18.6691L14.0026 20.1626L14.6744 19.3681Z" fill="white"/>
<path d="M15.3038 14.1791L17.3015 15.0091L16.7333 12.9162L17.5641 12.1822L18.3089 15.3917L19.3013 16.5149L18.5447 17.1833L17.5442 16.0509L14.4777 14.909L15.3038 14.1791Z" fill="white"/>
<path d="M28.5837 10.5486L26.8105 6.52477L28.5277 5.76804C28.7204 5.68313 28.9136 5.64538 29.1072 5.65479C29.303 5.65876 29.4886 5.70106 29.664 5.78169C29.8377 5.85853 29.9925 5.96403 30.1283 6.09819C30.2641 6.23235 30.3695 6.38445 30.4444 6.55447C30.546 6.78494 30.5878 7.02822 30.5698 7.28431C30.5556 7.53873 30.4812 7.77452 30.3468 7.99167C30.2145 8.20338 30.018 8.36667 29.7573 8.48155L28.9412 8.84119L29.5131 10.139L28.5837 10.5486ZM28.5841 8.03075L29.3435 7.6961C29.4153 7.66446 29.4723 7.61454 29.5144 7.54634C29.5565 7.47814 29.5782 7.39416 29.5793 7.29439C29.5805 7.19462 29.5544 7.08428 29.5011 6.96338C29.4462 6.83869 29.3786 6.74667 29.2983 6.68731C29.2201 6.6225 29.1387 6.58619 29.054 6.57838C28.9731 6.5689 28.8968 6.57998 28.825 6.61161L28.0996 6.93129L28.5841 8.03075Z" fill="white"/>
<path d="M32.5848 8.60936L31.3066 4.40202L32.2785 4.10679L33.2974 7.46081L35.3359 6.84153L35.5951 7.69485L32.5848 8.60936Z" fill="white"/>
<path d="M37.1878 3.05413L38.2698 2.87766L40.4691 6.97425L39.4422 7.14174L38.9475 6.22469L37.5966 6.44503L37.4251 7.47075L36.3982 7.63825L37.1878 3.05413ZM38.6698 5.5609L37.8903 3.97495L37.6429 5.7284L38.6698 5.5609Z" fill="white"/>
<path d="M43.8837 2.13825L44.8612 4.06807L45.791 2.1088L46.8995 2.09169L45.3775 5.01397L45.4006 6.51256L44.3913 6.52815L44.3679 5.01717L42.7814 2.15527L43.8837 2.13825Z" fill="white"/>
<path d="M56.1393 7.78777L57.4174 3.58043L59.213 4.1259C59.4145 4.18711 59.5855 4.2844 59.7263 4.41776C59.8721 4.54838 59.9853 4.70143 60.0658 4.8769C60.1474 5.04842 60.196 5.22932 60.2116 5.4196C60.2271 5.60988 60.2079 5.7939 60.1539 5.97168C60.0807 6.21266 59.9538 6.42439 59.7732 6.60687C59.5966 6.79054 59.3866 6.92091 59.1431 6.99797C58.9047 7.07229 58.6493 7.06804 58.3767 6.98522L57.5234 6.72599L57.1111 8.08301L56.1393 7.78777ZM57.7808 5.8786L58.5749 6.11983C58.6499 6.14263 58.7257 6.14191 58.8021 6.11765C58.8785 6.0934 58.9496 6.04382 59.0156 5.96891C59.0815 5.894 59.1336 5.79333 59.172 5.66691C59.2116 5.53655 59.2203 5.42268 59.1981 5.32532C59.1811 5.2252 59.143 5.14459 59.0839 5.08348C59.0287 5.02357 58.9636 4.98222 58.8886 4.95942L58.13 4.72899L57.7808 5.8786Z" fill="white"/>
<path d="M60.0843 8.89742L61.8575 4.87359L62.787 5.28317L61.3734 8.4909L63.323 9.35003L62.9634 10.1661L60.0843 8.89742Z" fill="white"/>
<path d="M67.5221 7.78677L68.4576 8.35815L67.4553 12.8985L66.5673 12.3561L66.7899 11.3382L65.6218 10.6248L64.8232 11.2908L63.9352 10.7485L67.5221 7.78677ZM67.012 10.6538L67.4546 8.94294L66.124 10.1115L67.012 10.6538Z" fill="white"/>
<path d="M72.9515 11.2705L72.435 13.3712L74.4172 12.4914L75.269 13.2009L72.21 14.4251L71.2508 15.5767L70.4751 14.9306L71.4423 13.7695L72.1045 10.565L72.9515 11.2705Z" fill="white"/>
<path d="M78.0346 22.8572L81.7359 20.4831L82.749 22.0626C82.8627 22.2399 82.9299 22.4249 82.9505 22.6177C82.9769 22.8117 82.9638 23.0016 82.9113 23.1873C82.8622 23.3709 82.7819 23.5401 82.6704 23.695C82.5588 23.85 82.4249 23.9776 82.2685 24.0779C82.0565 24.2139 81.8226 24.2928 81.5668 24.3146C81.3132 24.3399 81.0688 24.303 80.8335 24.2037C80.6038 24.1058 80.4121 23.9369 80.2583 23.6971L79.7768 22.9464L78.583 23.7121L78.0346 22.8572ZM80.5223 22.4682L80.9703 23.1668C81.0127 23.2328 81.0708 23.2814 81.1447 23.3125C81.2186 23.3435 81.3049 23.3519 81.4037 23.3377C81.5024 23.3234 81.6074 23.2805 81.7186 23.2092C81.8333 23.1357 81.9137 23.0546 81.96 22.9661C82.0119 22.8788 82.0352 22.7928 82.0298 22.7079C82.0267 22.6265 82.0039 22.5528 81.9616 22.4868L81.5336 21.8195L80.5223 22.4682Z" fill="white"/>
<path d="M80.0496 26.9604L84.0047 25.0388L84.4485 25.9523L81.2956 27.4842L82.2266 29.4005L81.4245 29.7902L80.0496 26.9604Z" fill="white"/>
<path d="M86.5263 30.8821L86.8686 31.9235L83.1632 34.7322L82.8383 33.7438L83.6674 33.1127L83.24 31.8124L82.2 31.8022L81.8751 30.8138L86.5263 30.8821ZM84.28 32.7353L85.7257 31.719L83.9551 31.7469L84.28 32.7353Z" fill="white"/>
<path d="M88.5649 36.4117L86.8077 37.6735L88.8864 38.292L89.0732 39.3847L85.9521 38.3287L84.4748 38.5813L84.3047 37.5862L85.7942 37.3316L88.3791 35.3251L88.5649 36.4117Z" fill="white"/>
</svg>
