<svg width="17" height="10" viewBox="0 0 17 10" fill="none" xmlns="http://www.w3.org/2000/svg">
<path d="M16.3215 2.49691H16.0567V2.34163C16.0842 2.0838 16.0137 1.825 15.8599 1.61988C15.7061 1.41475 15.4811 1.27934 15.2324 1.24224H14.6308C14.6583 0.948534 14.5748 0.655222 14.3976 0.423682C14.2204 0.192143 13.9634 0.0403228 13.6802 0H12.7597C12.4772 0.0417714 12.221 0.193977 12.0441 0.425161C11.8672 0.656345 11.7831 0.948842 11.8091 1.24224V3.10559H5.19092V1.24224C5.21846 0.948534 5.13492 0.655222 4.95774 0.423682C4.78055 0.192143 4.52348 0.0403228 4.24034 0H3.3198C3.03665 0.0403228 2.77958 0.192143 2.6024 0.423682C2.42521 0.655222 2.3416 0.948534 2.36914 1.24224H1.76749C1.51991 1.28079 1.29643 1.41681 1.14388 1.62177C0.991328 1.82674 0.92157 2.08473 0.949253 2.34163V2.49691H0.678539C0.475641 2.52632 0.29184 2.63616 0.166049 2.80312C0.0402588 2.97009 -0.0176306 3.18106 0.00469345 3.39132V6.61492C-0.0175281 6.82448 0.0405032 7.0347 0.166416 7.20067C0.29233 7.36663 0.476136 7.47518 0.678539 7.50311H0.949253V7.66461C0.921686 7.9208 0.991651 8.178 1.14432 8.38196C1.29699 8.58593 1.5204 8.72068 1.76749 8.75776H2.36914C2.34312 9.05116 2.42732 9.34367 2.60423 9.57486C2.78114 9.80604 3.03729 9.95823 3.3198 10H4.24034C4.52284 9.95823 4.77899 9.80604 4.9559 9.57486C5.13281 9.34367 5.21694 9.05116 5.19092 8.75776V6.89441H11.8091V8.75776C11.7831 9.05116 11.8672 9.34367 12.0441 9.57486C12.221 9.80604 12.4772 9.95823 12.7597 10H13.6802C13.9627 9.95823 14.2189 9.80604 14.3958 9.57486C14.5727 9.34367 14.6568 9.05116 14.6308 8.75776H15.2324C15.48 8.72066 15.704 8.58616 15.8577 8.3824C16.0113 8.17864 16.0826 7.92143 16.0567 7.66461V7.50311H16.3215C16.5239 7.47518 16.7077 7.36663 16.8336 7.20067C16.9595 7.0347 17.0175 6.82448 16.9953 6.61492V3.39132C17.0176 3.18106 16.9597 2.97009 16.834 2.80312C16.7082 2.63616 16.5244 2.52632 16.3215 2.49691Z" fill="white"/>
</svg>
