<svg width="35" height="36" viewBox="0 0 35 36" fill="none" xmlns="http://www.w3.org/2000/svg">
<path d="M33.7924 17.6144C35.6562 13.2977 34.5167 6.74013 31.9528 3.78298C30.8013 9.42698 22.3575 14.3187 22.3575 14.3187C22.3575 14.3187 22.9332 12.6256 22.1657 13.002C21.3981 13.3784 20.4387 12.6256 21.206 10.9325C21.9736 9.23941 24.0844 10.7444 24.0844 10.7444L24.6602 10.18C25.2359 9.42747 23.3171 8.86326 23.8926 8.4869C24.4684 8.11051 26.0035 9.05135 26.0035 9.05135C26.0035 9.05135 26.1953 9.05135 26.3874 7.92243C26.5795 6.7935 24.2766 7.35798 24.6605 5.85293C25.0444 4.34764 24.8523 4.87721 22.7417 4.68943C20.6311 4.50137 21.5902 6.72371 21.5902 6.72371H21.3984C19.863 6.72371 19.4797 4.50078 20.2469 2.99578C21.0145 1.4905 18.3281 1.87471 18.3281 1.87471L17.56 0H17.4425L16.6749 1.60907C16.6749 1.60907 13.9883 1.81415 14.7562 3.31943C15.524 4.82471 15.1401 6.72314 13.6047 6.72314H13.4128C13.4128 6.72314 14.3725 4.50021 12.2613 4.68886C10.1504 4.87719 9.95868 4.61241 10.3426 6.11714C10.7265 7.62243 8.4238 6.92543 8.61564 8.05435C8.80746 9.18328 8.99956 9.11714 8.99956 9.11714C8.99956 9.11714 10.5349 8.14364 11.1104 8.51948C11.6862 8.8956 9.7674 9.44363 10.3429 10.1964L10.9186 10.7525C10.9186 10.7525 13.0295 9.24328 13.7971 10.9364C14.5646 12.6295 13.6053 13.38 12.8374 13.0039C12.0696 12.6278 12.6456 14.32 12.6456 14.32C12.6461 14.32 4.20144 9.42772 3.0503 3.78287C0.486389 6.74015 -0.653168 13.2972 1.21066 17.6143C0.684437 17.7675 0.0429811 18.143 0.939436 19.0219C2.28248 20.3386 2.66637 20.3386 3.43392 22.2203C4.20147 24.102 5.54481 27.4884 5.9284 28.0526C5.96511 28.1067 6.00866 28.1865 6.05846 28.2869C5.3999 28.8118 5.13434 29.7465 6.1205 30.4982C6.45946 30.7565 6.82062 30.8687 7.19114 30.8857C7.50818 31.5668 7.81697 32.1184 8.03978 32.1912C8.494 32.3397 8.82642 31.55 8.66475 30.564C9.69984 30.1377 10.6728 29.4544 11.3021 29.5573C12.4536 29.7453 9.38334 31.4384 10.7264 33.1321C12.0412 34.7897 16.1141 34.6452 17.3646 35.8746C17.4053 35.9706 17.4511 36.0132 17.5018 35.9965C17.5524 36.0132 17.5977 35.9708 17.6389 35.8746C18.8895 34.6455 22.962 34.7903 24.2772 33.1321C25.6202 31.439 22.5502 29.7456 23.7014 29.5573C24.3307 29.4546 25.3037 30.1376 26.3388 30.564C26.1771 31.5504 26.5098 32.3396 26.9638 32.1912C27.1866 32.1184 27.4954 31.5668 27.8124 30.8857C28.1824 30.869 28.5438 30.7565 28.883 30.4982C29.8689 29.7465 29.6036 28.8115 28.9451 28.2867C28.9943 28.1862 29.0384 28.1061 29.0751 28.0523C29.4591 27.4878 30.8021 24.1014 31.5696 22.22C32.3372 20.3383 32.7211 20.3389 34.0641 19.0217C34.9597 18.143 34.3183 17.7674 33.792 17.6143L33.7924 17.6144ZM9.76706 24.1015C5.92895 26.171 11.1101 28.2408 11.1101 28.2408C11.1101 28.2408 9.19135 28.8052 7.84779 28.0527C7.72826 27.986 7.60246 27.9408 7.47411 27.9132C6.39408 25.9088 4.65003 22.7731 3.36198 20.4689C3.38674 20.4876 3.40923 20.5088 3.43427 20.5272C8.03964 23.9137 11.8777 21.8439 12.2616 20.7153C12.6456 19.5866 13.6052 22.0325 9.76716 24.1017L9.76706 24.1015ZM19.288 7.2287C19.0962 8.35763 17.5611 11.3383 17.5611 11.3383C17.5611 11.3383 15.9087 8.40834 15.7166 7.27948C15.5245 6.15055 16.6763 6.7234 17.0597 6.7234H17.9445C18.3285 6.7234 19.4799 6.09979 19.2881 7.2287H19.288ZM27.5296 27.913C27.401 27.9406 27.2755 27.9858 27.1559 28.0525C25.8129 28.805 23.8936 28.2405 23.8936 28.2405C23.8936 28.2405 29.0747 26.171 25.2367 24.1013C21.3986 22.0318 22.3582 19.5863 22.7422 20.7149C23.1261 21.8438 26.9642 23.9133 31.5696 20.5268C31.5943 20.5084 31.6174 20.4872 31.6418 20.4685C30.3537 22.7732 28.6095 25.9088 27.5297 27.9128L27.5296 27.913Z" fill="white"/>
</svg>
