<svg width="24" height="24" viewBox="0 0 24 24" fill="none" xmlns="http://www.w3.org/2000/svg">
<path d="M7.11003 5.95979L16.13 2.94979C20.18 1.59979 22.38 3.80979 21.04 7.85979L18.03 16.8798C16.01 22.9498 12.69 22.9498 10.67 16.8798L9.78003 14.1998L7.10003 13.3098C1.04003 11.2998 1.04003 7.98979 7.11003 5.95979Z" fill="white"/>
<path d="M12.12 11.6301L15.93 7.81006L12.12 11.6301Z" fill="#292D32"/>
<path d="M10.1294 15C9.8423 15 9.55524 14.8947 9.32861 14.669C8.89046 14.2327 8.89046 13.5106 9.32861 13.0743L15.0699 7.32722C15.508 6.89093 16.2332 6.89093 16.6714 7.32722C17.1095 7.76352 17.1095 8.48566 16.6714 8.92196L10.9301 14.669C10.7035 14.8796 10.4164 15 10.1294 15Z" fill="#003062"/>
</svg>
