<svg width="42" height="42" viewBox="0 0 42 42" fill="none" xmlns="http://www.w3.org/2000/svg">
<path d="M18.339 22.4035C18.2183 22.3716 17.9905 22.3555 17.6621 22.3555H16.2734V24.276H17.6759C18.1412 24.276 18.4745 24.1897 18.6667 24.0193C18.8572 23.8508 18.9538 23.6077 18.9538 23.2965C18.9538 23.071 18.8971 22.877 18.785 22.7192C18.6714 22.5606 18.5211 22.4541 18.339 22.4035L18.339 22.4035Z" fill="#003062"/>
<path d="M23.5181 22.4687C23.3229 22.3939 23.0072 22.356 22.579 22.356H21.4453V26.5332H22.5998C22.9591 26.5332 23.2448 26.4992 23.4494 26.4324C23.6503 26.3675 23.8139 26.2735 23.936 26.1528C24.1073 25.9792 24.2416 25.7469 24.3346 25.4633C24.43 25.172 24.4785 24.8152 24.4785 24.4035C24.4785 23.8344 24.3841 23.3898 24.1982 23.0814C24.0112 22.776 23.7825 22.5697 23.5181 22.4687L23.5181 22.4687Z" fill="#003062"/>
<path d="M10.5506 27.4442V21.4394C10.5506 19.9947 11.726 18.8193 13.1707 18.8193H30.7231V12.0555L30.6804 12.0128C30.6511 12.1256 30.5494 12.2092 30.4273 12.2092H24.4315C24.2864 12.2092 24.169 12.0918 24.169 11.9467V5.76795C24.169 5.7267 24.1793 5.68826 24.1962 5.65381H10.3866C8.83385 5.65381 7.57031 6.91801 7.57031 8.47219V33.7496C7.57031 35.3033 8.83361 36.5673 10.3866 36.5673H30.7236V30.0645H13.1712C11.7265 30.0642 10.5511 28.8888 10.5511 27.4441L10.5506 27.4442Z" fill="#739ECB"/>
<path d="M24.6953 6.02539V11.6848H30.3534L24.6953 6.02539Z" fill="#4572A1"/>
<path d="M13.1732 19.3447H32.4008C33.556 19.3447 34.4961 20.2846 34.4959 21.4398V27.4446C34.4959 28.5999 33.556 29.5397 32.4008 29.5397H13.1732C12.018 29.5397 11.0781 28.5999 11.0781 27.4446V21.4398C11.0781 20.2846 12.018 19.3447 13.1732 19.3447Z" fill="#4572A1"/>
<path d="M15.528 27V22.3137H17.1914C17.6974 22.3137 18.1198 22.4193 18.4586 22.6305C18.7975 22.8373 19.0505 23.1189 19.2177 23.4754C19.3893 23.8274 19.4751 24.219 19.4751 24.6502C19.4751 25.1255 19.3805 25.5391 19.1913 25.8911C19.0065 26.2431 18.7425 26.516 18.3992 26.7096C18.056 26.9032 17.6534 27 17.1914 27H15.528ZM18.7227 24.6502C18.7227 24.3202 18.6611 24.0298 18.5378 23.779C18.419 23.5238 18.2452 23.3257 18.0164 23.1849C17.792 23.0397 17.517 22.9671 17.1914 22.9671H16.2673V26.3466H17.1914C17.5214 26.3466 17.7986 26.2717 18.023 26.1221C18.2518 25.9725 18.4256 25.7701 18.5444 25.5149C18.6633 25.2597 18.7227 24.9715 18.7227 24.6502ZM22.5299 27.033C22.1911 27.033 21.8853 26.967 21.6125 26.835C21.3397 26.703 21.1042 26.5248 20.9062 26.3004C20.7082 26.0715 20.5542 25.8163 20.4442 25.5347C20.3386 25.2487 20.2858 24.9561 20.2858 24.6568C20.2858 24.3444 20.343 24.0474 20.4574 23.7658C20.5718 23.4798 20.7302 23.2267 20.9326 23.0067C21.135 22.7823 21.3727 22.6063 21.6455 22.4787C21.9227 22.3467 22.2219 22.2807 22.5431 22.2807C22.8776 22.2807 23.1812 22.3489 23.454 22.4853C23.7312 22.6217 23.9666 22.8043 24.1603 23.0331C24.3583 23.2619 24.5101 23.5172 24.6157 23.7988C24.7257 24.0804 24.7807 24.3686 24.7807 24.6634C24.7807 24.9759 24.7235 25.2751 24.6091 25.5611C24.4991 25.8427 24.3429 26.0957 24.1405 26.3202C23.938 26.5402 23.6982 26.714 23.421 26.8416C23.1482 26.9692 22.8512 27.033 22.5299 27.033ZM21.0382 24.6568C21.0382 24.8769 21.0734 25.0903 21.1438 25.2971C21.2142 25.5039 21.3133 25.6887 21.4409 25.8515C21.5729 26.0099 21.7313 26.1353 21.9161 26.2277C22.1009 26.3202 22.3077 26.3664 22.5365 26.3664C22.7742 26.3664 22.9854 26.318 23.1702 26.2211C23.355 26.1243 23.509 25.9945 23.6322 25.8317C23.7598 25.6645 23.8566 25.4797 23.9226 25.2773C23.9886 25.0705 24.0216 24.8637 24.0216 24.6568C24.0216 24.4368 23.9864 24.2256 23.916 24.0232C23.85 23.8164 23.751 23.6338 23.619 23.4754C23.487 23.3125 23.3286 23.1849 23.1438 23.0925C22.9634 23.0001 22.761 22.9539 22.5365 22.9539C22.2989 22.9539 22.0877 23.0023 21.9029 23.0991C21.7181 23.1959 21.5619 23.3257 21.4343 23.4886C21.3067 23.6514 21.2076 23.834 21.1372 24.0364C21.0712 24.2388 21.0382 24.4456 21.0382 24.6568ZM25.579 24.6238C25.579 24.3378 25.6296 24.0584 25.7309 23.7856C25.8321 23.5084 25.9795 23.2575 26.1731 23.0331C26.3711 22.8043 26.6109 22.6239 26.8925 22.4919C27.1742 22.3555 27.4932 22.2873 27.8496 22.2873C28.272 22.2873 28.6373 22.3841 28.9453 22.5777C29.2533 22.7669 29.4821 23.0111 29.6317 23.3103L29.0509 23.6998C28.9629 23.5106 28.8507 23.3609 28.7143 23.2509C28.5823 23.1409 28.437 23.0639 28.2786 23.0199C28.1246 22.9759 27.9728 22.9539 27.8232 22.9539C27.5768 22.9539 27.3612 23.0045 27.1764 23.1057C26.9915 23.2025 26.8353 23.3323 26.7077 23.4952C26.5845 23.658 26.4899 23.8406 26.4239 24.043C26.3623 24.2454 26.3315 24.4478 26.3315 24.6502C26.3315 24.8747 26.3689 25.0925 26.4437 25.3037C26.5185 25.5105 26.6219 25.6953 26.7539 25.8581C26.8903 26.0165 27.0509 26.1419 27.2358 26.2343C27.4206 26.3268 27.623 26.373 27.843 26.373C27.9926 26.373 28.1488 26.3466 28.3116 26.2938C28.4744 26.2409 28.6241 26.1595 28.7605 26.0495C28.9013 25.9351 29.0113 25.7855 29.0905 25.6007L29.7043 25.9505C29.6075 26.1837 29.4557 26.3818 29.2489 26.5446C29.0465 26.7074 28.8177 26.8306 28.5625 26.9142C28.3116 26.9978 28.063 27.0396 27.8166 27.0396C27.4866 27.0396 27.1852 26.9714 26.9123 26.835C26.6395 26.6942 26.4041 26.5094 26.2061 26.2805C26.0081 26.0473 25.8541 25.7877 25.7441 25.5017C25.634 25.2113 25.579 24.9187 25.579 24.6238Z" fill="white"/>
</svg>
