<svg width="36" height="35" viewBox="0 0 36 35" fill="none" xmlns="http://www.w3.org/2000/svg">
<path d="M2.34313 21.0929C1.94757 21.095 1.56477 20.9566 1.2657 20.7034C0.966393 20.4505 0.771436 20.0999 0.716926 19.717C0.123712 15.4035 1.25317 11.0328 3.87085 7.51172C6.54397 3.92079 10.5412 1.48693 15.0179 0.725096C19.4943 -0.0367411 24.0983 0.932657 27.8565 3.42869L28.5921 2.43453C28.7056 2.28024 28.8963 2.19913 29.0891 2.22361C29.2816 2.24808 29.4451 2.37406 29.5143 2.55138L31.4573 7.48078L31.4575 7.48102C31.5159 7.64203 31.4887 7.82104 31.3851 7.95877C31.2815 8.09674 31.1147 8.1752 30.9399 8.16897L25.5438 7.91102C25.35 7.90166 25.1772 7.78936 25.0934 7.61851C25.0097 7.44742 25.0284 7.24538 25.1425 7.09229L25.8711 6.13585C22.8483 4.14851 19.1548 3.38354 15.5669 4.00219C11.9789 4.62053 8.77581 6.57402 6.63113 9.45207C6.23729 9.99148 5.88445 10.5583 5.57506 11.148H9.97506C10.0897 11.1468 10.1963 11.2056 10.2542 11.3023C10.3124 11.3988 10.3134 11.5185 10.2567 11.6157C9.93259 12.1813 9.85156 12.8496 10.0313 13.4734C10.2599 14.0856 10.7571 14.5655 11.3866 14.7807C12.5183 15.1898 13.7766 15.097 14.8327 14.5261L18.1416 12.7166H18.1413C18.2378 12.6633 18.3594 12.6849 18.4301 12.7682L25.3469 21.0242L26.2023 22.032V22.0322C26.4707 22.3353 26.5905 22.7379 26.5303 23.1343C26.4702 23.531 26.2359 23.8823 25.889 24.096C25.6167 24.2539 25.2987 24.319 24.9847 24.2808C24.6706 24.2429 24.3782 24.1042 24.1535 23.8863L24.0374 23.7762C24.0275 23.7697 24.0145 23.7692 24.004 23.775C23.9937 23.781 23.9875 23.792 23.9883 23.8038C24.0398 24.0699 24.0099 24.3451 23.9023 24.5949C23.7945 24.8445 23.6138 25.0575 23.3828 25.2073C23.1061 25.376 22.7788 25.4482 22.4546 25.412C22.1305 25.3757 21.8288 25.2332 21.5979 25.0076L21.4924 24.9078V24.9081C21.4825 24.9013 21.4695 24.9011 21.459 24.9069C21.4487 24.9126 21.4425 24.9239 21.4433 24.9354C21.4948 25.2018 21.4649 25.477 21.3573 25.7266C21.2495 25.9763 21.0688 26.1894 20.8378 26.3392C20.562 26.5079 20.2362 26.5806 19.9128 26.5455C19.5895 26.5107 19.2879 26.3699 19.0566 26.1465L18.9511 26.0467C18.941 26.0402 18.928 26.0397 18.9177 26.0455C18.9071 26.0512 18.901 26.0625 18.9017 26.0743C18.967 26.4323 18.8845 26.8008 18.6724 27.0996C18.4602 27.3983 18.1359 27.603 17.7698 27.6687C17.404 27.7342 17.0263 27.6558 16.7194 27.4501L16.8532 27.2195L16.853 27.2198C17.1381 26.7521 17.2579 26.206 17.1943 25.6651C17.1307 25.1245 16.8871 24.6191 16.5012 24.2268C16.1338 23.8731 15.6624 23.6408 15.1529 23.5628C14.8379 23.0354 14.3274 22.6464 13.7273 22.4758C13.4919 21.6717 12.8429 21.0466 12.0167 20.8281C11.8644 20.286 11.52 19.8143 11.0451 19.4968C10.5164 19.1769 9.88739 19.0543 9.27353 19.1517C8.65969 19.2492 8.10256 19.5597 7.70455 20.0266L6.81053 21.0963H2.34353L2.34313 21.0929ZM10.2807 20.4669C10.0261 20.3282 9.72926 20.2828 9.44322 20.339C9.15742 20.3951 8.90157 20.5489 8.72137 20.773L7.79228 21.8877C7.59143 22.1271 7.49813 22.4355 7.53324 22.7431C7.56835 23.0505 7.72893 23.3312 7.97864 23.5215L8.11933 23.6317H8.11958C8.30471 23.7737 8.52913 23.858 8.76361 23.874C8.99835 23.8899 9.23258 23.8366 9.43612 23.7212C9.45527 23.7097 9.47958 23.7104 9.498 23.7231C9.51641 23.7358 9.52525 23.7581 9.52059 23.7797C9.4786 23.988 9.49677 24.2037 9.57239 24.4029C9.64826 24.6021 9.77889 24.7768 9.95003 24.908L10.0662 24.9975V24.9973C10.2439 25.1341 10.458 25.2183 10.6834 25.2396C10.9086 25.261 11.1355 25.2185 11.3368 25.1178C11.3565 25.1074 11.3805 25.1084 11.399 25.1209C11.4176 25.1331 11.4274 25.1545 11.4247 25.1763C11.3825 25.5725 11.5512 25.9622 11.8719 26.2084L11.9529 26.2703C12.1329 26.408 12.3499 26.4922 12.5778 26.5131C12.8054 26.5337 13.0345 26.4901 13.2375 26.3871C13.2572 26.3751 13.2815 26.3739 13.3024 26.3838C13.323 26.3934 13.3372 26.413 13.3397 26.4354C13.3856 26.7245 13.5415 26.9863 13.7762 27.1682L13.8256 27.2061V27.2059C14.1011 27.4168 14.4569 27.5001 14.8001 27.4338C15.1434 27.3678 15.4405 27.1591 15.6136 26.862L15.7859 26.5628L15.7862 26.5625C15.932 26.3259 15.9912 26.0476 15.9534 25.7736C15.9156 25.4995 15.7832 25.2464 15.5785 25.0558C15.4051 24.9015 15.1893 24.8005 14.9577 24.765C14.7264 24.7295 14.4893 24.7614 14.2761 24.8564C14.2646 24.8612 14.2516 24.86 14.2412 24.8528C14.2312 24.8459 14.2258 24.8341 14.2268 24.8219C14.2501 24.4279 14.0664 24.0495 13.7391 23.8181C13.4118 23.5868 12.9865 23.5347 12.6112 23.6799C12.4351 23.7109 12.4739 23.5595 12.4739 23.5595H12.4737C12.5986 23.2626 12.5915 22.9282 12.4543 22.6366C12.3168 22.3448 12.0614 22.1222 11.7493 22.0221C11.4372 21.9218 11.0964 21.9527 10.8089 22.1077C10.6751 22.125 10.6928 22.0079 10.6928 22.0079L10.6925 22.0082C10.8411 21.749 10.8811 21.4438 10.8042 21.1563C10.7276 20.8691 10.5398 20.622 10.2808 20.4669L10.2807 20.4669ZM34.6957 12.5997L34.583 12.2556C34.473 11.9367 34.2636 11.6593 33.9836 11.4631C33.7037 11.2668 33.3681 11.1614 33.0236 11.1617H29.1515C28.644 11.1614 28.1404 11.0705 27.6662 10.8934L20.383 8.16537C18.915 7.61827 17.2615 7.85103 16.0112 8.78131L11.4352 12.1767V12.1764C11.2183 12.3693 11.1157 12.6558 11.1616 12.9385C11.2078 13.2214 11.3966 13.4626 11.664 13.5799C12.4855 13.9292 13.4269 13.8834 14.209 13.4561L18.1022 11.3267C18.3963 11.1698 18.7632 11.2374 18.9785 11.4884L27.4655 21.5676H27.4657C27.5016 21.6113 27.5536 21.6389 27.6103 21.6446C27.6673 21.6504 27.724 21.6338 27.7682 21.5988L28.1203 21.3133C28.2976 21.1727 28.5188 21.0961 28.7469 21.0963H31.5031C30.6948 23.9922 28.936 26.5484 26.4971 28.3726C24.0579 30.1967 21.0737 31.188 18.0026 31.1942C14.9312 31.2002 11.9428 30.2207 9.4961 28.4062L10.274 27.4636C10.3965 27.3172 10.4272 27.1169 10.3538 26.9417C10.2803 26.7665 10.1146 26.6449 9.9221 26.6242L4.54706 26.0877C4.36561 26.0675 4.18637 26.1405 4.07318 26.2806C3.95998 26.4205 3.9288 26.6079 3.99092 26.7756L5.64878 31.8015C5.71605 31.9764 5.87516 32.1021 6.06423 32.13C6.25353 32.1578 6.44333 32.0834 6.56045 31.9356L7.34887 30.9827C10.2712 33.1848 13.8326 34.424 17.5217 34.5218C21.2108 34.6197 24.8357 33.5713 27.8755 31.5277C30.9157 29.4839 33.2142 26.5503 34.4397 23.1488C35.6654 19.7475 35.755 16.0538 34.696 12.5997L34.6957 12.5997Z" fill="white"/>
</svg>
