<svg width="63" height="32" viewBox="0 0 63 32" fill="none" xmlns="http://www.w3.org/2000/svg">
<path fill-rule="evenodd" clip-rule="evenodd" d="M15.4989 14.3894C18.0455 15.5281 21.1121 15.0153 23.1979 12.8643C25.7382 10.2272 25.9078 6.06436 23.6923 3.22672L24.9396 2.26825C25.141 2.08245 25.1603 1.76188 24.9786 1.55584C24.7969 1.34933 24.4842 1.32955 24.2899 1.51582L23.0224 2.48809C20.2878 -0.155984 16.0063 -0.102648 13.3426 2.66149C11.2573 4.81258 10.7701 7.98967 11.8669 10.6273L1.19821 21.6759C0.600597 22.2954 0.600597 23.3069 1.19821 23.9263L2.65368 25.4321C3.25802 26.058 4.23159 26.058 4.82965 25.4321L5.81805 24.4129L5.32407 23.9001C5.02526 23.5864 5.02526 23.0869 5.32407 22.7746L5.79203 22.289C6.09173 21.9753 6.57898 21.9753 6.88362 22.289L7.37804 22.8018L8.41086 21.7302L7.91643 21.2169C7.61807 20.9037 7.61807 20.3982 7.91643 20.0915L8.38483 19.6058C8.69082 19.2926 9.17806 19.2926 9.47643 19.6058L9.9704 20.1191L11.0032 19.0396L10.516 18.5333C10.2113 18.22 10.2113 17.7141 10.516 17.4018L10.9781 16.9217C11.2836 16.6085 11.7709 16.6085 12.0697 16.9217L12.5637 17.4281L15.4989 14.3894ZM18.8634 7.14332C18.0446 6.29753 18.0446 4.92558 18.8634 4.07974C19.5786 3.34066 20.6828 3.24729 21.4948 3.80655L21.2094 4.05215C21.0076 4.23841 20.995 4.55852 21.1762 4.76456C21.3588 4.97751 21.6635 4.99085 21.8654 4.80504L22.1642 4.55117C22.6124 5.37028 22.5025 6.43594 21.8201 7.14238C21.0013 7.98909 19.6827 7.98909 18.8634 7.1433L18.8634 7.14332ZM40.5634 22.2952L48.4252 30.4339C49.1718 31.2066 50.3814 31.2066 51.1208 30.4339L54.9605 26.4579L51.3286 22.7008C50.7575 22.108 50.7575 22.2211 51.3286 21.6292L53.4077 19.4781C53.9793 18.8853 53.869 18.8853 54.4415 19.4781L58.0734 23.2352L61.913 19.2651C62.6596 18.4934 62.6596 17.2411 61.913 16.4688L53.8627 8.12956L41.148 8.72147L40.5634 22.2952ZM43.1625 20.4169L45.4955 17.9991C45.8526 17.633 46.4377 17.633 46.7947 17.9991L48.0869 19.3454C48.4449 19.711 48.4449 20.3172 48.0869 20.6842L45.7542 23.102C45.3976 23.475 44.8192 23.475 44.455 23.102L43.1619 21.7627C42.8057 21.3892 42.8057 20.7904 43.1624 20.4169H43.1625ZM49.9068 13.4372L52.2394 11.0204C52.5966 10.6469 53.1744 10.6469 53.5387 11.0204L54.8317 12.3592C55.1889 12.7322 55.1889 13.3314 54.8317 13.7045L52.4991 16.1227C52.1411 16.4957 51.5569 16.4957 51.1998 16.1227L49.9068 14.7765C49.5488 14.4104 49.5488 13.8038 49.9068 13.4372ZM35.7495 22.6416C35.7495 23.3807 36.3278 23.9735 37.0353 23.9735H38.1332C38.8412 23.9735 39.419 23.3806 39.419 22.6416L40.1082 7.64277L54.5962 6.93036C55.3051 6.93036 55.8821 6.33109 55.8821 5.59849V4.45972C55.8821 3.72661 55.3046 3.12786 54.5962 3.12786L37.958 3.94651C37.6597 3.94651 37.3869 4.05321 37.1724 4.22614L36.3922 3.53396C36.1908 3.3477 35.8861 3.35414 35.6977 3.55972C35.516 3.76668 35.5281 4.08633 35.7237 4.27903L36.5878 5.0448C36.5546 5.16484 36.5425 5.28442 36.5425 5.41826L35.7495 22.6416ZM37.4643 6.07095C37.4643 5.99093 37.4706 5.91182 37.4836 5.83777L38.0422 6.32988C38.2436 6.52351 38.5483 6.51017 38.7372 6.30413C38.9184 6.10361 38.9063 5.78442 38.7107 5.59171L38.0942 5.04579C38.2374 4.97312 38.3926 4.93265 38.5622 4.93265C39.1728 4.93265 39.6601 5.44546 39.6601 6.07141C39.6601 6.70426 39.1728 7.21018 38.5622 7.21018C37.9516 7.21018 37.4643 6.7038 37.4643 6.07095ZM25.1528 1.13649C25.1528 1.55548 25.4843 1.8949 25.8863 1.8949C26.2897 1.8949 26.6212 1.55502 26.6212 1.13649C26.6212 0.716129 26.2897 0.376709 25.8863 0.376709C25.4843 0.376709 25.1528 0.716588 25.1528 1.13649ZM27.1084 1.13649C27.1084 1.55548 27.44 1.8949 27.8424 1.8949C28.2516 1.8949 28.5765 1.55502 28.5765 1.13649C28.5765 0.716129 28.2516 0.376709 27.8424 0.376709C27.4396 0.376709 27.1084 0.716588 27.1084 1.13649ZM28.6604 2.14832C28.6604 2.56777 28.9852 2.90765 29.3944 2.90765C29.7973 2.90765 30.1293 2.56777 30.1293 2.14832C30.1293 1.72796 29.7973 1.38854 29.3944 1.38854C28.9852 1.389 28.6604 1.72888 28.6604 2.14832ZM30.3694 3.41449C30.3694 3.83348 30.7009 4.17382 31.1043 4.17382C31.5063 4.17382 31.8378 3.83348 31.8378 3.41449C31.8378 2.99413 31.5063 2.65471 31.1043 2.65471C30.7005 2.65471 30.3694 2.99413 30.3694 3.41449ZM32.325 3.66698C32.325 4.08735 32.6566 4.42677 33.0599 4.42677C33.4619 4.42677 33.7935 4.08689 33.7935 3.66698C33.7935 3.248 33.4619 2.90766 33.0599 2.90766C32.6561 2.90766 32.325 3.248 32.325 3.66698ZM34.0408 2.6547C34.0408 3.07414 34.3656 3.41448 34.7748 3.41448C35.1777 3.41448 35.5088 3.07414 35.5088 2.6547C35.5088 2.23525 35.1772 1.89491 34.7748 1.89491C34.3656 1.89537 34.0408 2.23479 34.0408 2.6547Z" fill="white"/>
</svg>
