<svg width="42" height="42" viewBox="0 0 42 42" fill="none" xmlns="http://www.w3.org/2000/svg">
<path d="M18.339 22.4035C18.2183 22.3716 17.9905 22.3555 17.6621 22.3555H16.2734V24.276H17.6759C18.1412 24.276 18.4745 24.1897 18.6667 24.0193C18.8572 23.8508 18.9538 23.6077 18.9538 23.2965C18.9538 23.071 18.8971 22.877 18.785 22.7192C18.6714 22.5606 18.5211 22.4541 18.339 22.4035L18.339 22.4035Z" fill="#A65757"/>
<path d="M23.5181 22.4687C23.3229 22.3939 23.0072 22.356 22.579 22.356H21.4453V26.5332H22.5998C22.9591 26.5332 23.2448 26.4992 23.4494 26.4324C23.6503 26.3675 23.8139 26.2735 23.936 26.1528C24.1073 25.9792 24.2416 25.7469 24.3346 25.4633C24.43 25.172 24.4785 24.8152 24.4785 24.4035C24.4785 23.8344 24.3841 23.3898 24.1982 23.0814C24.0112 22.776 23.7825 22.5697 23.5181 22.4687L23.5181 22.4687Z" fill="#A65757"/>
<path d="M10.5506 27.4442V21.4394C10.5506 19.9947 11.726 18.8193 13.1707 18.8193H30.7231V12.0555L30.6804 12.0128C30.6511 12.1256 30.5494 12.2092 30.4273 12.2092H24.4315C24.2864 12.2092 24.169 12.0918 24.169 11.9467V5.76795C24.169 5.7267 24.1793 5.68826 24.1962 5.65381H10.3866C8.83385 5.65381 7.57031 6.91801 7.57031 8.47219V33.7496C7.57031 35.3033 8.83361 36.5673 10.3866 36.5673H30.7236V30.0645H13.1712C11.7265 30.0642 10.5511 28.8888 10.5511 27.4441L10.5506 27.4442Z" fill="#BE6767"/>
<path d="M24.6953 6.02539V11.6848H30.3534L24.6953 6.02539Z" fill="#A65757"/>
<path d="M32.4008 19.3447H13.1732C12.018 19.3447 11.0781 20.2846 11.0781 21.4398V27.4446C11.0781 28.5999 12.018 29.5397 13.1732 29.5397H32.4008C33.556 29.5397 34.4959 28.5999 34.4959 27.4446V21.4398C34.4961 20.2846 33.5563 19.3447 32.401 19.3447H32.4008ZM19.3196 24.4951C19.0119 24.8279 18.4559 24.9965 17.6665 24.9965L16.2741 24.9967V27.254H15.4735V21.6351H17.6011C17.9663 21.6351 18.2527 21.6531 18.4528 21.6887C18.7294 21.7352 18.964 21.824 19.1499 21.9529C19.3371 22.082 19.4904 22.2667 19.606 22.5016C19.7201 22.7331 19.778 22.9928 19.778 23.2733C19.778 23.7524 19.6238 24.1635 19.3196 24.4951L19.3196 24.4951ZM25.1551 25.5442C25.0566 25.87 24.9273 26.1456 24.7705 26.3629C24.6153 26.5787 24.4423 26.751 24.2567 26.875C24.0737 26.9978 23.847 27.0932 23.5831 27.1583C23.3225 27.2228 23.0283 27.254 22.6838 27.254H20.6464V21.6351H22.5938C23.0295 21.6351 23.3642 21.6623 23.5892 21.7162C23.9176 21.7926 24.1888 21.9253 24.4179 22.1214C24.7137 22.3713 24.938 22.6947 25.0845 23.083C25.2307 23.473 25.3046 23.9207 25.3046 24.4136C25.3046 24.8378 25.2542 25.2182 25.155 25.5442L25.1551 25.5442ZM30.0997 22.3555H27.0889V24.0111H29.6953V24.7316H27.0889V27.2539H26.2882V21.6351H30.0996L30.0997 22.3555Z" fill="#A65757"/>
</svg>
