<svg width="135" height="31" viewBox="0 0 135 31" fill="none" xmlns="http://www.w3.org/2000/svg">
<g clip-path="url(#clip0_503_40398)">
<path d="M124.703 18.4429C124.657 18.4429 124.635 18.3999 124.635 18.3158C124.635 18.2317 124.657 18.1888 124.703 18.1888C125.091 18.2035 125.48 18.168 125.858 18.0832C125.968 18.0556 126.07 18.0035 126.155 17.9313C126.24 17.859 126.305 17.7687 126.345 17.668C126.443 17.3612 126.486 17.0412 126.471 16.7212V6.87967C126.485 6.56397 126.447 6.24809 126.357 5.94366C126.32 5.8463 126.26 5.75817 126.182 5.68614C126.103 5.61412 126.008 5.56015 125.903 5.52845C125.565 5.43649 125.213 5.3972 124.861 5.41212C124.816 5.41212 124.793 5.36977 124.793 5.28506C124.793 5.20034 124.816 5.15799 124.861 5.15799H134.733C134.884 5.15799 134.958 5.22242 134.96 5.34948L135.005 8.92887C135.005 8.97004 134.964 8.99688 134.882 9.00404C134.8 9.0112 134.744 8.9933 134.735 8.95035C134.474 7.85864 134.042 7.05685 133.422 6.54679C132.803 6.03673 131.988 5.7808 130.976 5.7808H130.296C129.845 5.7808 129.511 5.87386 129.3 6.05641C129.187 6.16706 129.1 6.29843 129.044 6.44228C128.988 6.58612 128.964 6.73931 128.974 6.8922V16.6353C128.956 16.9723 129.021 17.3087 129.165 17.6178C129.238 17.7329 129.337 17.8322 129.454 17.9093C129.571 17.9864 129.704 18.0395 129.845 18.0653C130.358 18.1666 130.883 18.2093 131.407 18.1923C131.437 18.1923 131.453 18.2353 131.453 18.3194C131.453 18.4035 131.437 18.4465 131.407 18.4465C130.788 18.4465 130.304 18.4286 129.957 18.425L127.641 18.3999L125.943 18.4214C125.642 18.4214 125.227 18.4429 124.697 18.4429H124.703ZM122.602 18.187C122.648 18.187 122.671 18.2299 122.671 18.314C122.671 18.3981 122.648 18.4411 122.602 18.4411C122.074 18.4411 121.649 18.4232 121.333 18.4196L119.59 18.3981L117.552 18.4196C117.281 18.4196 116.91 18.4411 116.443 18.4411C116.397 18.4411 116.375 18.3981 116.375 18.314C116.375 18.2299 116.397 18.187 116.443 18.187C116.854 18.2017 117.265 18.1663 117.666 18.0814C117.78 18.056 117.886 18.0063 117.976 17.9362C118.067 17.8661 118.138 17.7773 118.186 17.6769C118.294 17.3684 118.34 17.0437 118.321 16.7194V8.01971L109.265 18.6755C109.227 18.7221 109.107 18.74 108.926 18.74C108.639 18.74 108.495 18.6905 108.495 18.5914V6.87967C108.513 6.56248 108.467 6.24504 108.36 5.94366C108.314 5.84441 108.246 5.75581 108.16 5.68408C108.073 5.61234 107.971 5.55923 107.861 5.52845C107.492 5.43612 107.111 5.3969 106.729 5.41212C106.684 5.41212 106.661 5.36917 106.661 5.28506C106.661 5.20094 106.684 5.15799 106.729 5.15799L107.998 5.17946C108.76 5.19199 109.332 5.22242 109.741 5.22242C110.345 5.22242 111.023 5.19378 111.78 5.17946L112.888 5.15799C112.934 5.15799 112.957 5.20094 112.957 5.28506C112.957 5.36917 112.934 5.41212 112.888 5.41212C112.477 5.39626 112.065 5.43543 111.665 5.52845C111.551 5.55712 111.446 5.60925 111.356 5.68106C111.266 5.75287 111.194 5.84257 111.145 5.94366C111.039 6.24505 110.993 6.56248 111.01 6.87967V15.6492L120.07 5.00049C120.11 4.95396 120.228 4.93606 120.409 4.93606C120.509 4.93531 120.608 4.9492 120.703 4.97723C120.792 5.00407 120.838 5.04166 120.838 5.08461V16.723C120.822 17.0437 120.867 17.3645 120.973 17.6697C121.017 17.7698 121.085 17.8591 121.171 17.931C121.257 18.0029 121.359 18.0556 121.47 18.085C121.843 18.1684 122.225 18.2028 122.608 18.187H122.602ZM99.1133 17.9955C101.091 17.9955 102.079 17.0314 102.079 15.1033C102.079 14.0116 101.8 13.1466 101.241 12.5083C100.682 11.8699 99.8391 11.5508 98.7113 11.5508C98.2732 11.5508 97.8807 11.5651 97.534 11.5937V16.723C97.534 17.1907 97.6318 17.5206 97.8274 17.7127C98.023 17.9048 98.4535 17.999 99.119 17.9955H99.1133ZM98.6846 5.55351C98.2465 5.55351 97.9449 5.64896 97.7798 5.83986C97.6147 6.03076 97.5315 6.3887 97.5302 6.91368V10.9566L98.4351 10.9781C98.7868 10.9941 99.1372 10.9266 99.4539 10.7818C99.7705 10.6369 100.043 10.4195 100.247 10.1494C100.67 9.59583 100.881 8.88711 100.881 8.02329C100.881 7.21435 100.691 6.60108 100.31 6.18348C99.9286 5.76589 99.387 5.5559 98.6846 5.55351ZM100.59 10.9781C101.86 11.1201 102.867 11.5168 103.613 12.1682C103.974 12.4733 104.261 12.8477 104.454 13.2661C104.647 13.6846 104.742 14.1372 104.733 14.5933C104.74 15.3106 104.503 16.0112 104.055 16.5923C103.572 17.2112 102.924 17.6995 102.177 18.008C101.339 18.3626 100.428 18.5404 99.5095 18.5288C99.0866 18.5288 98.6034 18.5073 98.0598 18.4644C97.849 18.45 97.5886 18.4363 97.2787 18.4232C96.9689 18.4101 96.6253 18.4029 96.2481 18.4017L94.5946 18.4232C94.2923 18.4375 93.8847 18.4447 93.3716 18.4447C93.3259 18.4447 93.303 18.4017 93.303 18.3176C93.303 18.2335 93.3259 18.1905 93.3716 18.1905C93.7083 18.2038 94.0449 18.1645 94.3679 18.0742C94.4763 18.0391 94.5757 17.983 94.6596 17.9096C94.7436 17.8363 94.8104 17.7473 94.8556 17.6483C94.9694 17.3521 95.0193 17.0375 95.0023 16.723V6.87967C95.0023 6.28311 94.8969 5.88997 94.686 5.70026C94.4752 5.51056 94.0447 5.41451 93.3945 5.41212C93.364 5.41212 93.3487 5.36917 93.3487 5.28506C93.3487 5.20094 93.364 5.15799 93.3945 5.15799L94.5946 5.17946C95.288 5.2069 95.8392 5.22122 96.2481 5.22242C96.6571 5.22361 97.0946 5.20213 97.5607 5.15799C97.7118 5.14367 97.9385 5.12935 98.2408 5.11503C98.543 5.10072 98.8053 5.09236 99.0275 5.08998C100.4 5.08998 101.465 5.32383 102.22 5.79154C102.583 6.00775 102.878 6.30983 103.077 6.66736C103.275 7.02489 103.37 7.42527 103.352 7.82821C103.355 8.50476 103.102 9.16035 102.639 9.67876C102.094 10.2773 101.385 10.7257 100.59 10.9763V10.9781ZM85.6868 17.9955C86.7282 17.9955 87.468 17.7366 87.9061 17.2187C88.3443 16.7009 88.5627 15.889 88.5615 14.783C88.5615 13.6483 88.3316 12.8221 87.8718 12.3042C87.4121 11.7864 86.6234 11.5293 85.5058 11.5329C85.0062 11.5399 84.5074 11.5752 84.0123 11.6385V16.723C83.9837 17.0702 84.1013 17.414 84.34 17.6805C84.5584 17.8905 85.0074 17.9955 85.6868 17.9955ZM86.2754 10.9333C87.8756 10.9333 89.098 11.2274 89.9426 11.8157C90.7871 12.4039 91.21 13.2725 91.2113 14.4214C91.2286 15.1867 90.9996 15.939 90.5541 16.5798C90.1004 17.2074 89.4689 17.7034 88.731 18.0116C87.9028 18.3618 87.0026 18.5359 86.0945 18.5216C85.702 18.5216 85.2429 18.4894 84.7133 18.4572C84.5228 18.4465 84.2009 18.4465 83.7608 18.425C83.3208 18.4035 82.9379 18.3892 82.6064 18.3928L81.1567 18.4143C80.8405 18.4143 80.3947 18.4357 79.8423 18.4357C79.7965 18.4357 79.7756 18.3928 79.7756 18.3087C79.7756 18.2245 79.7984 18.1834 79.8423 18.1816C80.204 18.1728 80.5642 18.1338 80.9186 18.0653C81.016 18.0432 81.1062 17.999 81.1812 17.9366C81.2563 17.8742 81.3139 17.7955 81.3491 17.7073C81.4504 17.3865 81.4922 17.0518 81.4729 16.7176V6.87967C81.4918 6.5498 81.4538 6.21922 81.3605 5.90071C81.3264 5.8138 81.2705 5.73588 81.1976 5.67358C81.1246 5.61127 81.0368 5.5664 80.9414 5.54277C80.5882 5.46627 80.2275 5.4237 79.8651 5.4157C79.8346 5.4157 79.8194 5.37275 79.8194 5.28863C79.8194 5.20452 79.8346 5.16157 79.8651 5.16157L80.9967 5.18304C81.6311 5.19557 82.2045 5.226 82.7112 5.226C83.2179 5.226 83.8351 5.19557 84.5895 5.18304L85.8811 5.16157C85.9116 5.16157 85.9268 5.20452 85.9268 5.28863C85.9268 5.37275 85.9116 5.4157 85.8811 5.4157C85.4702 5.42323 85.0608 5.46576 84.6581 5.54277C84.5502 5.56802 84.4496 5.61548 84.3636 5.68172C84.2776 5.74795 84.2084 5.83131 84.1609 5.92577C84.0337 6.24504 83.9798 6.58598 84.0028 6.9262V11.1051C84.7551 10.9982 85.5146 10.9414 86.2754 10.9351V10.9333ZM78.1697 18.187C78.2459 18.187 78.2821 18.2299 78.2821 18.314C78.2821 18.3981 78.244 18.4411 78.1697 18.4411C77.8674 18.4411 77.3994 18.4268 76.7657 18.3981C76.1015 18.3695 75.6258 18.3552 75.3388 18.3552C74.9578 18.3552 74.4974 18.3695 73.9577 18.3981C73.4497 18.4268 73.042 18.4411 72.7347 18.4411C72.6737 18.4411 72.6432 18.3987 72.6432 18.314C72.6432 18.2293 72.6737 18.187 72.7347 18.187C73.0234 18.2034 73.3126 18.1638 73.5843 18.0706C73.6679 18.0349 73.7378 17.9759 73.7844 17.9017C73.8311 17.8274 73.8524 17.7414 73.8453 17.6554C73.8453 17.4168 73.6942 17.0123 73.3919 16.442L68.9094 8.13246L65.4004 15.4219C65.2176 15.7812 65.1176 16.1727 65.107 16.5709C65.0951 16.7976 65.1406 17.0238 65.24 17.2307C65.3394 17.4376 65.4897 17.6194 65.6785 17.761C66.1291 18.064 66.6759 18.2142 67.2292 18.187C67.3042 18.187 67.3416 18.2293 67.3416 18.314C67.3416 18.3987 67.3042 18.4411 67.2292 18.4411C66.9574 18.4411 66.565 18.4268 66.0519 18.3981C65.4779 18.3695 64.9794 18.3552 64.5565 18.3552C64.1336 18.3552 63.6427 18.3695 63.0839 18.3981C62.5759 18.4268 62.1606 18.4411 61.8381 18.4411C61.7771 18.4411 61.7466 18.3981 61.7466 18.314C61.7466 18.2299 61.7771 18.187 61.8381 18.187C62.2103 18.1991 62.5789 18.1142 62.903 17.9418C63.2551 17.7147 63.5492 17.417 63.764 17.0702C64.15 16.4731 64.4906 15.8511 64.7832 15.2089L69.6962 5.06313C69.7267 5.02018 69.7953 4.9987 69.9 4.9987C70.0048 4.9987 70.0905 5.02018 70.1039 5.06313L75.7636 15.5293C76.292 16.5363 76.7295 17.2313 77.0762 17.6143C77.4229 17.9973 77.7874 18.1882 78.1697 18.187ZM60.2321 15.0604C60.2321 15.0317 60.2626 15.0174 60.3236 15.0174C60.3672 15.0175 60.41 15.0286 60.4474 15.0496C60.4855 15.0711 60.5065 15.089 60.5046 15.1033C60.3622 16.1049 60.2864 17.1139 60.2779 18.1243C60.2858 18.211 60.2615 18.2976 60.2093 18.3695C60.1718 18.399 60.1283 18.4209 60.0814 18.4339C60.0346 18.4468 59.9853 18.4505 59.9369 18.4447H49.9299C49.8861 18.4447 49.8613 18.4017 49.8613 18.3176C49.8613 18.2335 49.8842 18.1905 49.9299 18.1905C50.2847 18.2054 50.6399 18.1698 50.9833 18.085C51.087 18.054 51.1812 18.0001 51.2581 17.9279C51.335 17.8556 51.3923 17.7671 51.4253 17.6697C51.5141 17.3614 51.552 17.0421 51.5377 16.723V6.87967C51.5527 6.56406 51.5148 6.2482 51.4253 5.94366C51.3889 5.8463 51.3291 5.75817 51.2504 5.68614C51.1718 5.61412 51.0764 5.56015 50.9719 5.52845C50.6337 5.43649 50.2817 5.3972 49.9299 5.41212C49.8842 5.41212 49.8613 5.36917 49.8613 5.28506C49.8613 5.20094 49.8842 5.15799 49.9299 5.15799H59.5292C59.6797 5.15799 59.754 5.22242 59.7559 5.34948L59.8016 8.17899C59.8016 8.20763 59.7597 8.2291 59.6778 8.24342C59.5959 8.25774 59.5425 8.24342 59.5311 8.20047C59.2873 7.379 58.8815 6.76871 58.3081 6.3714C57.7347 5.97409 56.9746 5.77543 56.0449 5.77543H55.3649C54.9134 5.77543 54.58 5.8685 54.3685 6.05104C54.2554 6.16404 54.1688 6.29811 54.1143 6.44455C54.0599 6.59099 54.0387 6.74655 54.0523 6.90115V11.2322H55.9306C56.8057 11.2322 57.4775 11.0902 57.9461 10.8063C58.1652 10.6845 58.3458 10.51 58.469 10.3008C58.5923 10.0916 58.6538 9.85518 58.6472 9.61612C58.6472 9.57316 58.6891 9.55169 58.771 9.55169C58.8529 9.55169 58.8948 9.57316 58.8948 9.61612L58.8701 11.5329L58.8929 12.553C58.9044 13.0362 58.9386 13.4174 58.9386 13.702C58.9386 13.7306 58.8929 13.7449 58.8034 13.7449C58.7139 13.7449 58.6681 13.7306 58.6681 13.702C58.6793 13.4355 58.6199 13.1706 58.4952 12.931C58.3705 12.6914 58.1845 12.4847 57.9538 12.3293C57.4788 11.9964 56.7955 11.83 55.904 11.83H54.0485V16.6353C54.0228 16.9576 54.1104 17.2789 54.2981 17.5498C54.3965 17.6538 54.5193 17.7348 54.6569 17.7864C54.7945 17.838 54.943 17.8587 55.0905 17.8469H55.8373C57.0146 17.8469 57.9582 17.6202 58.6681 17.1668C59.3781 16.7134 59.8994 16.0113 60.2321 15.0604ZM34.8518 17.8684H43.6586L39.018 8.35975L34.8518 17.8684ZM47.5753 17.8684C47.6563 17.8588 47.7386 17.8699 47.8134 17.9006C47.846 17.9709 47.8578 18.0482 47.8477 18.1243C47.8477 18.1816 47.8325 18.3802 47.802 18.7203C47.6713 19.7867 47.6077 20.8594 47.6115 21.9328C47.6115 22.0044 47.5696 22.0384 47.4877 22.0384C47.4058 22.0384 47.3638 22.0026 47.3638 21.9328C47.3638 20.7981 46.9301 19.9331 46.0627 19.3377C45.1953 18.7424 43.9463 18.4441 42.3156 18.4429H37.2959C35.8621 18.4429 34.7641 18.7412 34.0021 19.3377C33.2401 19.9343 32.8591 20.7993 32.8591 21.9328C32.8591 22.0044 32.8134 22.0384 32.7239 22.0384C32.6344 22.0384 32.5886 22.0026 32.5886 21.9328C32.5989 20.9238 32.5461 19.915 32.4305 18.9118C32.3858 18.6514 32.3629 18.3881 32.3619 18.1243C32.3537 18.0517 32.3655 17.9784 32.3962 17.9113C32.4191 17.8827 32.4839 17.8684 32.5867 17.8684H34.126L39.7857 5.06313C39.8162 5.02018 39.8924 4.9987 40.0124 4.9987C40.1324 4.9987 40.2029 5.02018 40.2163 5.06313L46.4647 17.8684H47.5753Z" fill="#003062"/>
<path d="M106.89 25.1936L106.509 25.4567C106.315 25.2132 106.061 25.0174 105.769 24.8858C105.472 24.7545 105.146 24.6884 104.817 24.6925C104.449 24.6904 104.087 24.7786 103.767 24.9484C103.456 25.1089 103.197 25.3458 103.019 25.6339C102.839 25.9288 102.746 26.2639 102.752 26.6039C102.745 26.8564 102.795 27.1074 102.897 27.341C102.999 27.5746 103.152 27.7856 103.346 27.9605C103.545 28.1397 103.78 28.2796 104.037 28.3718C104.294 28.4641 104.569 28.5068 104.844 28.4974C105.162 28.502 105.477 28.4385 105.765 28.3117C106.053 28.1849 106.307 27.998 106.507 27.7654L106.888 28.0321C106.652 28.3125 106.349 28.5364 106.004 28.6853C105.633 28.8425 105.23 28.9213 104.823 28.9162C103.992 28.9162 103.337 28.6573 102.859 28.1395C102.458 27.6997 102.244 27.1362 102.259 26.5574C102.252 26.2506 102.313 25.9459 102.439 25.6627C102.564 25.3795 102.752 25.1241 102.988 24.9126C103.229 24.692 103.514 24.519 103.827 24.4041C104.141 24.2891 104.475 24.2344 104.811 24.2433C105.226 24.2376 105.636 24.3221 106.01 24.4903C106.358 24.6499 106.659 24.8886 106.886 25.1847L106.89 25.1936ZM98.079 24.356H98.561V26.0294L100.451 24.3614H101.089L98.8029 26.3587L101.255 28.8088H100.632L98.5648 26.7453V28.8178H98.0828L98.079 24.356ZM93.8023 24.356H96.5169V24.7945H94.2785V26.1851H96.4997V26.6164H94.2785V28.3614H96.4997V28.8016H93.8061L93.8023 24.356ZM92.3945 28.8195H91.8763L90.299 25.3851L88.7026 28.8195H88.2034L90.2666 24.3739H90.3637L92.3945 28.8195ZM83.4028 24.365H86.7614V28.8124H86.2889V24.7892H83.8734V28.8142H83.399L83.4028 24.365ZM76.5448 28.8124L77.2192 24.365H77.2973L79.2213 28.0124L81.1264 24.365H81.2045L81.8884 28.8124H81.4178L80.9549 25.6303L79.2823 28.8124H79.1623L77.4668 25.6088L77.0077 28.8124H76.5448ZM72.6738 24.6961C72.3227 24.6993 71.9785 24.7887 71.6754 24.9554C71.3724 25.1221 71.1209 25.3603 70.946 25.6464C70.7701 25.9427 70.6802 26.2772 70.685 26.6164C70.6828 26.8631 70.7325 27.1077 70.8315 27.3361C70.9305 27.5646 71.0766 27.7723 71.2616 27.9474C71.4465 28.1225 71.6665 28.2614 71.9089 28.3561C72.1513 28.4508 72.4113 28.4994 72.6738 28.4992C73.0314 28.5013 73.3831 28.4142 73.693 28.2468C73.9994 28.086 74.2526 27.8488 74.4245 27.5614C74.6005 27.2664 74.6905 26.9331 74.6855 26.595C74.6905 26.2597 74.6004 25.9292 74.4245 25.6375C74.2493 25.3506 73.9945 25.1137 73.6873 24.952C73.3782 24.7798 73.0256 24.689 72.6662 24.6889L72.6738 24.6961ZM72.6548 24.2594C72.9873 24.2512 73.3182 24.3068 73.627 24.4228C73.9359 24.5388 74.2164 24.7128 74.4512 24.9341C74.8011 25.2609 75.0398 25.6779 75.137 26.1323C75.2342 26.5867 75.1856 27.058 74.9972 27.4864C74.8088 27.9147 74.4892 28.2809 74.0789 28.5383C73.6687 28.7957 73.1862 28.9329 72.6929 28.9323C72.3632 28.939 72.0356 28.8824 71.73 28.7661C71.4244 28.6498 71.1473 28.4761 70.9155 28.2558C70.6814 28.0439 70.4962 27.789 70.3713 27.507C70.2465 27.2249 70.1846 26.9218 70.1897 26.6164C70.1871 26.2001 70.3008 25.7903 70.5193 25.4281C70.7302 25.0702 71.0411 24.7732 71.4184 24.569C71.7913 24.3623 72.2162 24.2529 72.6491 24.2522L72.6548 24.2594ZM66.0006 24.3739H66.4826V26.0294L68.3723 24.3614H69.0105L66.7245 26.3587L69.1763 28.8088H68.5533L66.475 26.7453V28.8178H65.993L66.0006 24.3739ZM59.5484 23.735H59.9751C60.0451 23.8393 60.1465 23.9215 60.2666 23.9713C60.4055 24.0271 60.5556 24.0539 60.7066 24.05C60.8481 24.0547 60.9891 24.0309 61.12 23.9802C61.2391 23.9228 61.3412 23.8386 61.4172 23.735H61.8325C61.7772 23.9255 61.6463 24.0889 61.4667 24.1914C61.237 24.3202 60.9719 24.3825 60.7047 24.3704C60.434 24.3816 60.1655 24.3195 59.9313 24.1914C59.7416 24.09 59.6015 23.923 59.5407 23.7261L59.5484 23.735ZM62.5487 28.8231H62.0573V25.403L58.9426 28.8124H58.834V24.3668H59.3064V27.8334L62.4421 24.3668H62.5507L62.5487 28.8231ZM54.7382 24.7068C54.3871 24.7101 54.0429 24.7995 53.7398 24.9662C53.4368 25.1329 53.1853 25.3711 53.0104 25.6572C52.8346 25.9535 52.7446 26.288 52.7494 26.6272C52.7471 26.8738 52.7969 27.1184 52.8959 27.3469C52.9948 27.5753 53.141 27.7831 53.3259 27.9582C53.5109 28.1332 53.7309 28.2721 53.9733 28.3668C54.2157 28.4615 54.4757 28.5102 54.7382 28.5099C55.0957 28.5121 55.4474 28.425 55.7574 28.2576C56.0638 28.0968 56.317 27.8596 56.4889 27.5721C56.6647 27.2771 56.7547 26.9438 56.7499 26.6057C56.7547 26.2705 56.6646 25.94 56.4889 25.6482C56.3136 25.3613 56.0588 25.1245 55.7517 24.9628C55.4454 24.7877 55.0948 24.6932 54.7363 24.6889L54.7382 24.7068ZM54.7192 24.2701C55.0517 24.2619 55.3825 24.3175 55.6914 24.4336C56.0003 24.5496 56.2807 24.7235 56.5156 24.9449C56.8655 25.2716 57.1042 25.6886 57.2014 26.143C57.2986 26.5974 57.2499 27.0687 57.0616 27.4971C56.8732 27.9255 56.5536 28.2916 56.1433 28.549C55.733 28.8065 55.2506 28.9436 54.7573 28.943C54.4273 28.9498 54.0994 28.8934 53.7934 28.7771C53.4875 28.6607 53.21 28.487 52.978 28.2665C52.7442 28.0544 52.5593 27.7995 52.4348 27.5175C52.3103 27.2355 52.2488 26.9324 52.2541 26.6272C52.2471 26.2051 52.3595 25.7888 52.5799 25.4209C52.7906 25.0629 53.1016 24.7659 53.479 24.5619C53.8548 24.3564 54.2825 24.2495 54.7173 24.2522L54.7192 24.2701ZM51.0463 28.8392H50.5282L48.9604 25.3851L47.364 28.8195H46.8496L48.9127 24.3739H49.0099L51.0463 28.8392ZM45.5942 28.8392H45.1027V25.403L41.988 28.8124H41.8795V24.3668H42.3519V27.8334L45.4875 24.3668H45.5961L45.5942 28.8392ZM37.8142 26.7453V28.8124H37.3398V26.7453L37.1969 26.6236L35.2615 28.8142H34.6328L36.8921 26.3498L34.8062 24.3668H35.4443L37.3398 26.246V24.3668H37.818V26.2478L39.723 24.3668H40.365L38.2733 26.3498L40.5307 28.8142H39.9021L37.9609 26.6236L37.8142 26.7453Z" fill="#003062"/>
<path fill-rule="evenodd" clip-rule="evenodd" d="M16.3109 21.5552L16.3357 11.7512L17.9873 12.825L17.9721 21.5552H16.3109ZM22.5041 15.7888V17.9364L20.0942 16.3651L20.0637 21.5552H18.6388L18.6521 13.2689L22.5041 15.7888ZM12.7333 5.90967L12.7142 21.5552H15.6441L15.6727 10.5503L17.9873 12.0698V9.35304L12.7333 5.90967ZM12.3847 21.5552L12.4037 5.8166L8.59372 7.28057L8.56515 21.5552H12.3847ZM12.7371 3.39336C14.8193 3.94816 16.6976 4.76426 17.7187 5.53025C20.9172 7.92128 22.4983 10.1101 22.4983 13.9418V15.0156L18.654 12.5047V9.02195L12.7352 5.14368L12.7371 3.39336ZM0.00215366 5.8524C0.0402537 8.72844 3.02158 9.25282 5.49999 9.17407C3.65214 8.52799 2.7987 7.16424 2.95872 5.85061C3.39306 2.30164 8.23177 2.26048 12.4037 3.30029V5.1401L7.93268 6.86V10.8582L5.45808 11.8389L5.43522 21.6089C-1.14085 22.2711 -2.29909 29.4048 5.01803 30.6182C6.6449 30.8884 8.28701 30.7417 9.1176 29.9614C9.2942 29.8 9.45019 29.6198 9.58242 29.4245C9.62236 29.3392 9.6317 29.244 9.60902 29.1533C9.58634 29.0626 9.53288 28.9812 9.45669 28.9216C9.4056 28.8841 9.34714 28.8566 9.28468 28.8405C9.22221 28.8243 9.15697 28.82 9.09271 28.8276C9.02844 28.8353 8.96642 28.8548 8.91021 28.885C8.854 28.9153 8.80471 28.9557 8.76517 29.0039C7.69646 30.1905 6.28867 30.5538 5.07137 30.3229C3.52832 30.033 2.25958 29.0289 2.25958 27.3144C2.25958 25.7431 3.59309 24.4509 6.45059 24.4509C7.28879 24.4867 8.5461 24.4652 9.78625 24.4509H12.3847V26.4965H12.7085V24.4527H19.416L22.5022 21.5552H20.7286L20.7515 17.5534L22.5022 18.6988V21.5623L25.8835 18.382V13.9508C25.8835 6.79199 20.2866 2.24616 12.8152 2.24616H12.7371V0.257812H12.4075V2.24616H6.8335C4.02362 2.24616 -0.0454714 2.22648 0.00215366 5.8524Z" fill="#003062"/>
</g>
<defs>
<clipPath id="clip0_503_40398">
<rect width="135" height="30.4839" fill="white" transform="translate(0 0.258301)"/>
</clipPath>
</defs>
</svg>
