<svg width="135" height="30" viewBox="0 0 135 30" fill="none" xmlns="http://www.w3.org/2000/svg">
<g clip-path="url(#clip0_603_8116)">
<path d="M124.703 17.896C124.657 17.896 124.635 17.8537 124.635 17.7709C124.635 17.6881 124.657 17.6459 124.703 17.6459C125.091 17.6604 125.48 17.6254 125.858 17.542C125.968 17.5148 126.07 17.4636 126.155 17.3925C126.24 17.3214 126.305 17.2325 126.345 17.1333C126.443 16.8314 126.486 16.5165 126.471 16.2016V6.5163C126.485 6.20561 126.447 5.89474 126.357 5.59515C126.32 5.49934 126.26 5.4126 126.182 5.34172C126.103 5.27083 126.008 5.21772 125.903 5.18653C125.565 5.09603 125.213 5.05736 124.861 5.07205C124.816 5.07205 124.793 5.03036 124.793 4.947C124.793 4.86363 124.816 4.82194 124.861 4.82194H134.733C134.884 4.82194 134.958 4.88535 134.96 5.0104L135.005 8.53298C135.005 8.57348 134.964 8.5999 134.882 8.60695C134.8 8.61399 134.744 8.59638 134.735 8.55411C134.474 7.47973 134.042 6.69067 133.422 6.1887C132.803 5.68674 131.988 5.43487 130.976 5.43487H130.296C129.845 5.43487 129.511 5.52646 129.3 5.70611C129.187 5.815 129.1 5.94429 129.044 6.08585C128.988 6.22741 128.964 6.37817 128.974 6.52863V16.1171C128.956 16.4487 129.021 16.7798 129.165 17.084C129.238 17.1973 129.337 17.295 129.454 17.3708C129.571 17.4467 129.704 17.499 129.845 17.5243C130.358 17.6241 130.883 17.6661 131.407 17.6494C131.437 17.6494 131.453 17.6917 131.453 17.7744C131.453 17.8572 131.437 17.8995 131.407 17.8995C130.788 17.8995 130.304 17.8819 129.957 17.8784L127.641 17.8537L125.943 17.8748C125.642 17.8748 125.227 17.896 124.697 17.896H124.703ZM122.602 17.6441C122.648 17.6441 122.671 17.6864 122.671 17.7692C122.671 17.8519 122.648 17.8942 122.602 17.8942C122.074 17.8942 121.649 17.8766 121.333 17.8731L119.59 17.8519L117.552 17.8731C117.281 17.8731 116.91 17.8942 116.443 17.8942C116.397 17.8942 116.374 17.8519 116.374 17.7692C116.374 17.6864 116.397 17.6441 116.443 17.6441C116.854 17.6587 117.265 17.6237 117.666 17.5402C117.78 17.5152 117.886 17.4664 117.976 17.3973C118.067 17.3283 118.138 17.241 118.186 17.1421C118.294 16.8386 118.34 16.519 118.321 16.1999V7.63824L109.265 18.1249C109.227 18.1707 109.107 18.1883 108.926 18.1883C108.639 18.1883 108.495 18.1396 108.495 18.0422V6.5163C108.513 6.20414 108.467 5.89174 108.36 5.59515C108.314 5.49748 108.246 5.41028 108.16 5.33968C108.073 5.26909 107.971 5.21681 107.861 5.18653C107.492 5.09566 107.111 5.05706 106.729 5.07205C106.684 5.07205 106.661 5.02978 106.661 4.947C106.661 4.86421 106.684 4.82194 106.729 4.82194L107.998 4.84308C108.76 4.85541 109.332 4.88535 109.741 4.88535C110.345 4.88535 111.023 4.85717 111.78 4.84308L112.888 4.82194C112.934 4.82194 112.957 4.86421 112.957 4.947C112.957 5.02978 112.934 5.07205 112.888 5.07205C112.477 5.05643 112.065 5.09498 111.665 5.18653C111.551 5.21475 111.445 5.26604 111.356 5.33671C111.266 5.40738 111.194 5.49566 111.145 5.59515C111.039 5.89175 110.993 6.20415 111.01 6.5163V15.1466L120.07 4.66695C120.11 4.62116 120.228 4.60354 120.409 4.60354C120.509 4.6028 120.608 4.61647 120.703 4.64405C120.792 4.67047 120.838 4.70746 120.838 4.74973V16.2034C120.822 16.519 120.867 16.8347 120.973 17.1351C121.017 17.2335 121.085 17.3214 121.171 17.3922C121.257 17.463 121.359 17.5148 121.47 17.5437C121.843 17.6259 122.225 17.6597 122.608 17.6441H122.602ZM99.1133 17.4557C101.091 17.4557 102.079 16.5069 102.079 14.6094C102.079 13.535 101.8 12.6837 101.241 12.0555C100.682 11.4274 99.8391 11.1133 98.7113 11.1133C98.2732 11.1133 97.8807 11.1274 97.534 11.1555V16.2034C97.534 16.6637 97.6318 16.9883 97.8274 17.1774C98.023 17.3664 98.4535 17.4592 99.119 17.4557H99.1133ZM98.6846 5.21119C98.2465 5.21119 97.9449 5.30512 97.7798 5.49299C97.6147 5.68087 97.5315 6.03312 97.5302 6.54977V10.5285L98.4351 10.5496C98.7868 10.5654 99.1372 10.499 99.4539 10.3564C99.7705 10.2139 100.043 9.9999 100.247 9.73417C100.67 9.18935 100.881 8.49188 100.881 7.64176C100.881 6.84566 100.691 6.24213 100.31 5.83116C99.9286 5.42019 99.3869 5.21354 98.6846 5.21119ZM100.59 10.5496C101.86 10.6894 102.867 11.0798 103.613 11.7209C103.974 12.0211 104.261 12.3896 104.454 12.8014C104.647 13.2132 104.742 13.6586 104.733 14.1074C104.74 14.8134 104.503 15.5029 104.055 16.0748C103.572 16.6839 102.924 17.1644 102.177 17.468C101.339 17.817 100.428 17.9919 99.5095 17.9805C99.0866 17.9805 98.6034 17.9594 98.0598 17.9171C97.849 17.903 97.5886 17.8895 97.2787 17.8766C96.9689 17.8637 96.6253 17.8566 96.2481 17.8555L94.5946 17.8766C94.2923 17.8907 93.8847 17.8977 93.3716 17.8977C93.3259 17.8977 93.303 17.8555 93.303 17.7727C93.303 17.6899 93.3259 17.6476 93.3716 17.6476C93.7082 17.6607 94.0449 17.622 94.3679 17.5331C94.4763 17.4985 94.5757 17.4434 94.6596 17.3712C94.7436 17.299 94.8104 17.2114 94.8556 17.114C94.9694 16.8225 95.0193 16.5129 95.0023 16.2034V6.5163C95.0023 5.92921 94.8969 5.54231 94.686 5.35561C94.4752 5.16892 94.0447 5.0744 93.3944 5.07205C93.364 5.07205 93.3487 5.02978 93.3487 4.947C93.3487 4.86421 93.364 4.82194 93.3944 4.82194L94.5946 4.84308C95.288 4.87009 95.8392 4.88418 96.2481 4.88535C96.6571 4.88652 97.0946 4.86539 97.5607 4.82194C97.7118 4.80785 97.9385 4.79376 98.2408 4.77967C98.543 4.76558 98.8053 4.75736 99.0275 4.75502C100.4 4.75502 101.465 4.98516 102.22 5.44544C102.583 5.65822 102.878 5.9555 103.077 6.30736C103.275 6.65922 103.37 7.05324 103.352 7.44978C103.355 8.1156 103.102 8.76078 102.639 9.27095C102.094 9.86003 101.385 10.3013 100.59 10.5479V10.5496ZM85.6868 17.4557C86.7282 17.4557 87.468 17.2009 87.9061 16.6913C88.3443 16.1817 88.5627 15.3826 88.5614 14.2941C88.5614 13.1775 88.3316 12.3644 87.8718 11.8548C87.4121 11.3452 86.6234 11.0921 85.5058 11.0956C85.0062 11.1026 84.5074 11.1373 84.0123 11.1996V16.2034C83.9837 16.545 84.1013 16.8834 84.34 17.1457C84.5584 17.3523 85.0073 17.4557 85.6868 17.4557ZM86.2754 10.5056C87.8756 10.5056 89.098 10.7951 89.9426 11.3739C90.7871 11.9528 91.21 12.8076 91.2113 13.9384C91.2286 14.6914 90.9996 15.4318 90.5541 16.0625C90.1004 16.6801 89.4689 17.1682 88.731 17.4715C87.9028 17.8161 87.0026 17.9875 86.0945 17.9735C85.702 17.9735 85.2429 17.9418 84.7133 17.9101C84.5228 17.8995 84.2009 17.8995 83.7608 17.8784C83.3208 17.8572 82.9379 17.8431 82.6064 17.8467L81.1567 17.8678C80.8405 17.8678 80.3947 17.8889 79.8422 17.8889C79.7965 17.8889 79.7756 17.8467 79.7756 17.7639C79.7756 17.6811 79.7984 17.6406 79.8422 17.6388C80.204 17.6301 80.5642 17.5918 80.9186 17.5243C81.016 17.5026 81.1062 17.4591 81.1812 17.3977C81.2563 17.3363 81.3139 17.2589 81.3491 17.1721C81.4503 16.8564 81.4922 16.5269 81.4729 16.1981V6.5163C81.4918 6.19166 81.4538 5.86633 81.3605 5.55288C81.3264 5.46734 81.2705 5.39067 81.1976 5.32935C81.1246 5.26803 81.0368 5.22387 80.9414 5.20062C80.5882 5.12534 80.2275 5.08344 79.8651 5.07557C79.8346 5.07557 79.8194 5.0333 79.8194 4.95052C79.8194 4.86774 79.8346 4.82547 79.8651 4.82547L80.9967 4.8466C81.631 4.85893 82.2045 4.88887 82.7112 4.88887C83.2179 4.88887 83.8351 4.85893 84.5895 4.8466L85.8811 4.82547C85.9116 4.82547 85.9268 4.86774 85.9268 4.95052C85.9268 5.0333 85.9116 5.07557 85.8811 5.07557C85.4702 5.08298 85.0608 5.12484 84.6581 5.20062C84.5502 5.22547 84.4496 5.27218 84.3636 5.33736C84.2776 5.40255 84.2084 5.48458 84.1609 5.57754C84.0337 5.89175 83.9798 6.22727 84.0028 6.5621V10.6747C84.7551 10.5694 85.5146 10.5135 86.2754 10.5074V10.5056ZM78.1697 17.6441C78.2459 17.6441 78.282 17.6864 78.282 17.7692C78.282 17.8519 78.2439 17.8942 78.1697 17.8942C77.8674 17.8942 77.3994 17.8801 76.7657 17.8519C76.1015 17.8238 75.6258 17.8097 75.3388 17.8097C74.9578 17.8097 74.4974 17.8238 73.9577 17.8519C73.4497 17.8801 73.042 17.8942 72.7347 17.8942C72.6737 17.8942 72.6432 17.8525 72.6432 17.7692C72.6432 17.6858 72.6737 17.6441 72.7347 17.6441C73.0234 17.6603 73.3126 17.6213 73.5843 17.5296C73.6679 17.4945 73.7377 17.4364 73.7844 17.3633C73.8311 17.2902 73.8524 17.2056 73.8453 17.121C73.8453 16.8862 73.6942 16.4881 73.3919 15.9269L68.9094 7.7492L65.4004 14.9229C65.2176 15.2765 65.1176 15.6619 65.107 16.0537C65.095 16.2768 65.1406 16.4994 65.24 16.703C65.3394 16.9067 65.4897 17.0856 65.6785 17.2249C66.1291 17.5231 66.6759 17.6709 67.2292 17.6441C67.3041 17.6441 67.3416 17.6858 67.3416 17.7692C67.3416 17.8525 67.3041 17.8942 67.2292 17.8942C66.9574 17.8942 66.565 17.8801 66.0519 17.8519C65.4779 17.8238 64.9794 17.8097 64.5565 17.8097C64.1336 17.8097 63.6427 17.8238 63.0839 17.8519C62.5759 17.8801 62.1606 17.8942 61.8381 17.8942C61.7771 17.8942 61.7466 17.8519 61.7466 17.7692C61.7466 17.6864 61.7771 17.6441 61.8381 17.6441C62.2103 17.656 62.5789 17.5725 62.903 17.4028C63.2551 17.1794 63.5492 16.8864 63.764 16.5451C64.15 15.9575 64.4906 15.3454 64.7832 14.7133L69.6962 4.7286C69.7267 4.68633 69.7953 4.66519 69.9 4.66519C70.0048 4.66519 70.0905 4.68633 70.1039 4.7286L75.7636 15.0286C76.292 16.0196 76.7295 16.7036 77.0762 17.0805C77.4229 17.4574 77.7874 17.6453 78.1697 17.6441ZM60.2321 14.5671C60.2321 14.539 60.2626 14.5249 60.3236 14.5249C60.3672 14.5249 60.41 14.5359 60.4474 14.5566C60.4855 14.5777 60.5065 14.5953 60.5046 14.6094C60.3622 15.5951 60.2864 16.5881 60.2779 17.5825C60.2858 17.6678 60.2615 17.753 60.2093 17.8238C60.1718 17.8528 60.1283 17.8743 60.0814 17.8871C60.0346 17.8998 59.9853 17.9034 59.9369 17.8977H49.9299C49.8861 17.8977 49.8613 17.8555 49.8613 17.7727C49.8613 17.6899 49.8842 17.6476 49.9299 17.6476C50.2847 17.6623 50.6399 17.6272 50.9833 17.5437C51.087 17.5132 51.1812 17.4602 51.2581 17.3891C51.335 17.318 51.3923 17.2309 51.4253 17.1351C51.5141 16.8317 51.552 16.5174 51.5377 16.2034V6.5163C51.5527 6.2057 51.5148 5.89485 51.4253 5.59515C51.3889 5.49934 51.3291 5.4126 51.2504 5.34172C51.1718 5.27083 51.0764 5.21772 50.9719 5.18653C50.6337 5.09603 50.2817 5.05736 49.9299 5.07205C49.8842 5.07205 49.8613 5.02978 49.8613 4.947C49.8613 4.86421 49.8842 4.82194 49.9299 4.82194H59.5292C59.6797 4.82194 59.754 4.88535 59.7559 5.0104L59.8016 7.795C59.8016 7.82318 59.7597 7.84431 59.6778 7.8584C59.5959 7.87249 59.5425 7.8584 59.5311 7.81613C59.2873 7.0077 58.8815 6.4071 58.3081 6.0161C57.7347 5.62509 56.9746 5.42959 56.0449 5.42959H55.3649C54.9134 5.42959 54.58 5.52117 54.3685 5.70083C54.2554 5.81203 54.1688 5.94397 54.1143 6.08808C54.0599 6.2322 54.0387 6.38529 54.0523 6.53744V10.7998H55.9306C56.8057 10.7998 57.4775 10.66 57.9461 10.3806C58.1652 10.2608 58.3458 10.089 58.469 9.88312C58.5923 9.6772 58.6538 9.44458 58.6472 9.20931C58.6472 9.16704 58.6891 9.1459 58.771 9.1459C58.8529 9.1459 58.8948 9.16704 58.8948 9.20931L58.8701 11.0956L58.8929 12.0996C58.9044 12.5751 58.9386 12.9503 58.9386 13.2303C58.9386 13.2585 58.8929 13.2726 58.8034 13.2726C58.7139 13.2726 58.6681 13.2585 58.6681 13.2303C58.6793 12.9681 58.6199 12.7074 58.4952 12.4716C58.3705 12.2358 58.1845 12.0323 57.9538 11.8794C57.4788 11.5518 56.7955 11.388 55.904 11.388H54.0485V16.1171C54.0228 16.4343 54.1104 16.7505 54.2981 17.0171C54.3965 17.1194 54.5193 17.1992 54.6569 17.2499C54.7945 17.3007 54.9429 17.3211 55.0905 17.3095H55.8373C57.0146 17.3095 57.9582 17.0864 58.6681 16.6402C59.3781 16.194 59.8994 15.503 60.2321 14.5671ZM34.8518 17.3306H43.6586L39.018 7.97289L34.8518 17.3306ZM47.5753 17.3306C47.6563 17.3212 47.7386 17.3321 47.8134 17.3623C47.846 17.4315 47.8578 17.5076 47.8477 17.5825C47.8477 17.6388 47.8325 17.8343 47.802 18.169C47.6713 19.2184 47.6077 20.2741 47.6115 21.3305C47.6115 21.4009 47.5696 21.4344 47.4877 21.4344C47.4058 21.4344 47.3638 21.3992 47.3638 21.3305C47.3638 20.2138 46.9301 19.3625 46.0627 18.7766C45.1953 18.1907 43.9463 17.8971 42.3156 17.896H37.2959C35.8621 17.896 34.7641 18.1895 34.0021 18.7766C33.2401 19.3637 32.8591 20.215 32.8591 21.3305C32.8591 21.4009 32.8134 21.4344 32.7239 21.4344C32.6344 21.4344 32.5886 21.3992 32.5886 21.3305C32.5989 20.3375 32.5461 19.3447 32.4305 18.3574C32.3858 18.1012 32.3629 17.842 32.3619 17.5825C32.3537 17.511 32.3655 17.4388 32.3962 17.3729C32.4191 17.3447 32.4839 17.3306 32.5867 17.3306H34.126L39.7857 4.7286C39.8162 4.68633 39.8924 4.66519 40.0124 4.66519C40.1324 4.66519 40.2029 4.68633 40.2163 4.7286L46.4647 17.3306H47.5753Z" fill="white"/>
<path d="M106.89 24.5395L106.509 24.7984C106.315 24.5588 106.061 24.366 105.769 24.2365C105.472 24.1073 105.146 24.0422 104.817 24.0463C104.449 24.0442 104.087 24.1311 103.767 24.2982C103.456 24.4561 103.197 24.6893 103.019 24.9727C102.839 25.263 102.746 25.5928 102.752 25.9274C102.745 26.1759 102.795 26.4229 102.897 26.6528C102.999 26.8826 103.152 27.0903 103.346 27.2624C103.545 27.4388 103.78 27.5765 104.037 27.6672C104.294 27.758 104.569 27.8 104.844 27.7908C105.162 27.7954 105.477 27.7329 105.765 27.608C106.053 27.4832 106.307 27.2994 106.507 27.0704L106.888 27.3329C106.652 27.6089 106.349 27.8292 106.004 27.9757C105.633 28.1304 105.23 28.208 104.823 28.2029C103.992 28.2029 103.337 27.9481 102.859 27.4385C102.458 27.0058 102.244 26.4512 102.259 25.8816C102.252 25.5797 102.313 25.2798 102.439 25.0011C102.564 24.7224 102.752 24.471 102.988 24.2629C103.229 24.0458 103.514 23.8756 103.827 23.7624C104.141 23.6493 104.475 23.5955 104.811 23.6042C105.226 23.5986 105.636 23.6818 106.01 23.8473C106.358 24.0044 106.659 24.2392 106.886 24.5307L106.89 24.5395ZM98.079 23.7152H98.561V25.362L100.451 23.7205H101.089L98.8029 25.6861L101.255 28.0973H100.632L98.5648 26.0665V28.1061H98.0828L98.079 23.7152ZM93.8023 23.7152H96.5169V24.1467H94.2785V25.5152H96.4997V25.9397H94.2785V27.6569H96.4997V28.0902H93.8061L93.8023 23.7152ZM92.3945 28.1078H91.8763L90.299 24.7279L88.7026 28.1078H88.2034L90.2666 23.7328H90.3637L92.3945 28.1078ZM83.4028 23.724H86.7614V28.1008H86.2889V24.1414H83.8734V28.1026H83.399L83.4028 23.724ZM76.5448 28.1008L77.2192 23.724H77.2973L79.2213 27.3135L81.1264 23.724H81.2045L81.8884 28.1008H81.4178L80.9549 24.9692L79.2823 28.1008H79.1623L77.4668 24.9481L77.0077 28.1008H76.5448ZM72.6738 24.0498C72.3227 24.053 71.9785 24.141 71.6754 24.3051C71.3724 24.4691 71.1209 24.7035 70.946 24.9851C70.7701 25.2767 70.6802 25.6059 70.685 25.9397C70.6828 26.1824 70.7325 26.4231 70.8315 26.648C70.9305 26.8728 71.0766 27.0773 71.2616 27.2495C71.4465 27.4218 71.6665 27.5585 71.9089 27.6517C72.1513 27.7449 72.4113 27.7928 72.6738 27.7926C73.0314 27.7947 73.3831 27.709 73.693 27.5442C73.9994 27.386 74.2526 27.1525 74.4245 26.8697C74.6005 26.5794 74.6905 26.2513 74.6855 25.9186C74.6905 25.5886 74.6004 25.2634 74.4245 24.9763C74.2493 24.6939 73.9945 24.4608 73.6873 24.3017C73.3782 24.1322 73.0256 24.0428 72.6662 24.0428L72.6738 24.0498ZM72.6548 23.6201C72.9873 23.612 73.3182 23.6667 73.627 23.7809C73.9359 23.8951 74.2164 24.0663 74.4512 24.2841C74.8011 24.6056 75.0398 25.016 75.137 25.4632C75.2342 25.9104 75.1856 26.3743 74.9972 26.7958C74.8088 27.2174 74.4892 27.5777 74.0789 27.8311C73.6687 28.0844 73.1862 28.2194 72.6929 28.2188C72.3632 28.2254 72.0356 28.1697 71.73 28.0552C71.4244 27.9408 71.1473 27.7699 70.9155 27.553C70.6814 27.3445 70.4962 27.0936 70.3713 26.8161C70.2465 26.5386 70.1846 26.2402 70.1897 25.9397C70.1871 25.5299 70.3008 25.1267 70.5193 24.7702C70.7302 24.418 71.0411 24.1257 71.4184 23.9248C71.7913 23.7213 72.2162 23.6137 72.6491 23.613L72.6548 23.6201ZM66.0006 23.7328H66.4826V25.362L68.3723 23.7205H69.0105L66.7245 25.6861L69.1763 28.0973H68.5533L66.475 26.0665V28.1061H65.993L66.0006 23.7328ZM59.5484 23.104H59.9751C60.0451 23.2066 60.1465 23.2876 60.2666 23.3365C60.4055 23.3914 60.5556 23.4179 60.7066 23.414C60.8481 23.4186 60.9891 23.3952 61.12 23.3453C61.2391 23.2888 61.3412 23.2059 61.4172 23.104H61.8325C61.7772 23.2915 61.6463 23.4522 61.4667 23.5531C61.237 23.68 60.9719 23.7412 60.7047 23.7293C60.434 23.7403 60.1655 23.6792 59.9313 23.5531C59.7416 23.4533 59.6015 23.289 59.5407 23.0952L59.5484 23.104ZM62.5487 28.1114H62.0573V24.7455L58.9426 28.1008H58.834V23.7258H59.3064V27.1374L62.4421 23.7258H62.5507L62.5487 28.1114ZM54.7382 24.0604C54.3871 24.0636 54.0429 24.1516 53.7398 24.3156C53.4368 24.4797 53.1853 24.7141 53.0104 24.9956C52.8346 25.2873 52.7446 25.6164 52.7494 25.9503C52.7471 26.193 52.7969 26.4337 52.8959 26.6585C52.9948 26.8834 53.141 27.0878 53.3259 27.2601C53.5109 27.4324 53.7309 27.5691 53.9733 27.6623C54.2157 27.7555 54.4757 27.8034 54.7382 27.8031C55.0957 27.8052 55.4474 27.7195 55.7574 27.5548C56.0638 27.3965 56.317 27.1631 56.4889 26.8802C56.6647 26.5899 56.7547 26.2618 56.7499 25.9291C56.7547 25.5992 56.6646 25.274 56.4889 24.9868C56.3136 24.7045 56.0588 24.4714 55.7517 24.3123C55.4454 24.14 55.0948 24.047 54.7363 24.0428L54.7382 24.0604ZM54.7192 23.6306C55.0517 23.6226 55.3825 23.6773 55.6914 23.7915C56.0003 23.9056 56.2807 24.0769 56.5156 24.2947C56.8655 24.6162 57.1042 25.0266 57.2014 25.4738C57.2986 25.921 57.2499 26.3848 57.0616 26.8064C56.8732 27.228 56.5536 27.5883 56.1433 27.8416C55.733 28.095 55.2506 28.2299 54.7573 28.2294C54.4273 28.2361 54.0994 28.1805 53.7934 28.066C53.4875 27.9515 53.21 27.7806 52.978 27.5636C52.7442 27.3549 52.5593 27.104 52.4348 26.8264C52.3103 26.5489 52.2488 26.2507 52.2541 25.9503C52.2471 25.5349 52.3595 25.1252 52.5799 24.7632C52.7906 24.4108 53.1016 24.1185 53.479 23.9177C53.8548 23.7155 54.2825 23.6103 54.7173 23.613L54.7192 23.6306ZM51.0463 28.1272H50.5282L48.9604 24.7279L47.364 28.1078H46.8496L48.9127 23.7328H49.0099L51.0463 28.1272ZM45.5942 28.1272H45.1027V24.7455L41.988 28.1008H41.8795V23.7258H42.3519V27.1374L45.4875 23.7258H45.5961L45.5942 28.1272ZM37.8142 26.0665V28.1008H37.3398V26.0665L37.1969 25.9467L35.2615 28.1026H34.6328L36.8921 25.6773L34.8062 23.7258H35.4443L37.3398 25.5751V23.7258H37.818V25.5769L39.723 23.7258H40.365L38.2733 25.6773L40.5307 28.1026H39.9021L37.9609 25.9467L37.8142 26.0665Z" fill="white"/>
<path fill-rule="evenodd" clip-rule="evenodd" d="M16.3109 20.9588L16.3357 11.3105L17.9873 12.3673L17.9721 20.9588H16.3109ZM22.5041 15.284V17.3975L20.0942 15.8511L20.0637 20.9588H18.6388L18.6521 12.8041L22.5041 15.284ZM12.7333 5.56166L12.7142 20.9588H15.6441L15.6727 10.1287L17.9873 11.624V8.95037L12.7333 5.56166ZM12.3847 20.9588L12.4037 5.47007L8.59372 6.9108L8.56515 20.9588H12.3847ZM12.7371 3.08529C14.8193 3.63128 16.6976 4.43443 17.7187 5.18826C20.9172 7.54134 22.4983 9.69539 22.4983 13.4663V14.5231L18.654 12.052V8.62453L12.7352 4.80782L12.7371 3.08529ZM0.00215366 5.50529C0.0402537 8.33568 3.02158 8.85174 5.49999 8.77424C3.65214 8.13842 2.7987 6.79632 2.95872 5.50353C3.39306 2.0109 8.23177 1.97039 12.4037 2.9937V4.8043L7.93268 6.4969V10.4316L5.45808 11.3968L5.43522 21.0117C-1.14085 21.6633 -2.29909 28.6838 5.01803 29.878C6.6449 30.1439 8.28701 29.9995 9.1176 29.2316C9.2942 29.0727 9.45019 28.8954 9.58242 28.7032C9.62236 28.6193 9.6317 28.5256 9.60902 28.4363C9.58634 28.347 9.53288 28.267 9.45669 28.2083C9.4056 28.1715 9.34714 28.1443 9.28468 28.1285C9.22221 28.1126 9.15697 28.1083 9.09271 28.1158C9.02844 28.1234 8.96642 28.1426 8.91021 28.1723C8.854 28.2021 8.80471 28.2419 8.76517 28.2893C7.69646 29.457 6.28867 29.8146 5.07137 29.5874C3.52832 29.302 2.25958 28.314 2.25958 26.6266C2.25958 25.0802 3.59309 23.8086 6.45059 23.8086C7.28879 23.8438 8.5461 23.8227 9.78625 23.8086H12.3847V25.8217H12.7085V23.8103H19.416L22.5022 20.9588H20.7286L20.7515 17.0206L22.5022 18.1478V20.9659L25.8835 17.8361V13.4751C25.8835 6.42997 20.2866 1.9563 12.8152 1.9563H12.7371V-0.000488281H12.4075V1.9563H6.8335C4.02362 1.9563 -0.0454714 1.93693 0.00215366 5.50529Z" fill="white"/>
</g>
<defs>
<clipPath id="clip0_603_8116">
<rect width="135" height="30" fill="white"/>
</clipPath>
</defs>
</svg>
