<svg width="1918" height="352" viewBox="0 0 1918 352" fill="none" xmlns="http://www.w3.org/2000/svg">
<path d="M1771.56 283.334C1770.92 283.334 1770.59 282.728 1770.59 281.543C1770.59 280.358 1770.92 279.752 1771.56 279.752C1777.08 279.96 1782.6 279.46 1787.97 278.264C1789.55 277.876 1791 277.142 1792.2 276.124C1793.41 275.106 1794.34 273.834 1794.91 272.413C1796.3 268.091 1796.9 263.581 1796.69 259.072V120.389C1796.9 115.94 1796.35 111.489 1795.07 107.199C1794.55 105.827 1793.7 104.585 1792.58 103.57C1791.46 102.555 1790.11 101.795 1788.62 101.348C1783.82 100.052 1778.81 99.4985 1773.81 99.7089C1773.16 99.7089 1772.84 99.112 1772.84 97.9183C1772.84 96.7245 1773.16 96.1277 1773.81 96.1277H1914.13C1916.27 96.1277 1917.32 97.0356 1917.35 98.8262L1918 149.266C1918 149.846 1917.4 150.224 1916.24 150.325C1915.08 150.426 1914.29 150.174 1914.16 149.568C1910.45 134.184 1904.3 122.886 1895.5 115.698C1886.7 108.511 1875.11 104.904 1860.73 104.904H1851.06C1844.65 104.904 1839.91 106.216 1836.9 108.788C1835.3 110.347 1834.06 112.198 1833.26 114.225C1832.47 116.252 1832.13 118.411 1832.27 120.566V257.862C1832.01 262.61 1832.93 267.351 1834.98 271.707C1836.03 273.329 1837.43 274.728 1839.1 275.814C1840.76 276.9 1842.65 277.649 1844.65 278.012C1851.94 279.44 1859.4 280.042 1866.85 279.803C1867.28 279.803 1867.5 280.408 1867.5 281.593C1867.5 282.779 1867.28 283.384 1866.85 283.384C1858.05 283.384 1851.17 283.132 1846.24 283.081L1813.32 282.728L1789.19 283.031C1784.91 283.031 1779.01 283.334 1771.48 283.334H1771.56ZM1741.7 279.727C1742.35 279.727 1742.67 280.332 1742.67 281.518C1742.67 282.703 1742.35 283.308 1741.7 283.308C1734.2 283.308 1728.16 283.056 1723.66 283.006L1698.89 282.703L1669.92 283.006C1666.07 283.006 1660.79 283.308 1654.16 283.308C1653.51 283.308 1653.18 282.703 1653.18 281.518C1653.18 280.332 1653.51 279.727 1654.16 279.727C1660 279.936 1665.84 279.435 1671.54 278.239C1673.16 277.882 1674.67 277.182 1675.95 276.194C1677.23 275.205 1678.25 273.955 1678.93 272.54C1680.47 268.193 1681.12 263.617 1680.86 259.047V136.454L1552.13 286.612C1551.59 287.268 1549.88 287.52 1547.31 287.52C1543.23 287.52 1541.19 286.822 1541.19 285.427V120.389C1541.44 115.919 1540.78 111.446 1539.27 107.199C1538.61 105.801 1537.64 104.552 1536.42 103.541C1535.19 102.53 1533.74 101.782 1532.17 101.348C1526.93 100.047 1521.51 99.4943 1516.09 99.7089C1515.44 99.7089 1515.11 99.1036 1515.11 97.9183C1515.11 96.7329 1515.44 96.1277 1516.09 96.1277L1534.12 96.4303C1544.95 96.6068 1553.08 97.0356 1558.9 97.0356C1567.48 97.0356 1577.12 96.6321 1587.87 96.4303L1603.63 96.1277C1604.28 96.1277 1604.6 96.7329 1604.6 97.9183C1604.6 99.1036 1604.28 99.7089 1603.63 99.7089C1597.78 99.4853 1591.93 100.037 1586.25 101.348C1584.63 101.752 1583.12 102.487 1581.84 103.499C1580.56 104.511 1579.54 105.775 1578.85 107.199C1577.34 111.446 1576.69 115.919 1576.93 120.389V243.966L1705.71 93.9083C1706.28 93.2526 1707.96 93.0004 1710.53 93.0004C1711.95 92.9898 1713.35 93.1855 1714.7 93.5805C1715.97 93.9588 1716.62 94.4884 1716.62 95.0936V259.097C1716.39 263.616 1717.04 268.137 1718.55 272.439C1719.17 273.848 1720.13 275.107 1721.36 276.12C1722.58 277.134 1724.04 277.876 1725.61 278.29C1730.9 279.466 1736.35 279.95 1741.78 279.727H1741.7ZM1407.83 277.029C1435.94 277.029 1449.99 263.444 1449.99 236.274C1449.99 220.89 1446.02 208.7 1438.08 199.705C1430.14 190.71 1418.15 186.212 1402.12 186.212C1395.89 186.212 1390.31 186.414 1385.39 186.818V259.097C1385.39 265.688 1386.78 270.337 1389.56 273.044C1392.34 275.751 1398.45 277.079 1407.91 277.029H1407.83ZM1401.74 101.701C1395.51 101.701 1391.23 103.046 1388.88 105.736C1386.53 108.426 1385.35 113.47 1385.33 120.868V177.84L1398.19 178.142C1403.19 178.368 1408.17 177.417 1412.67 175.376C1417.17 173.335 1421.05 170.27 1423.94 166.465C1429.95 158.664 1432.96 148.677 1432.96 136.504C1432.96 125.105 1430.25 116.463 1424.84 110.579C1419.42 104.694 1411.72 101.735 1401.74 101.701ZM1428.82 178.142C1446.87 180.143 1461.19 185.733 1471.79 194.913C1476.92 199.212 1481 204.488 1483.75 210.385C1486.49 216.281 1487.85 222.659 1487.71 229.086C1487.81 239.194 1484.44 249.067 1478.07 257.256C1471.21 265.977 1462 272.858 1451.37 277.205C1439.46 282.203 1426.52 284.708 1413.46 284.544C1407.45 284.544 1400.58 284.242 1392.86 283.636C1389.86 283.434 1386.16 283.241 1381.76 283.056C1377.35 282.871 1372.47 282.77 1367.11 282.754L1343.6 283.056C1339.31 283.258 1333.51 283.359 1326.22 283.359C1325.57 283.359 1325.25 282.754 1325.25 281.568C1325.25 280.383 1325.57 279.778 1326.22 279.778C1331.01 279.964 1335.79 279.41 1340.38 278.138C1341.92 277.643 1343.34 276.853 1344.53 275.819C1345.72 274.786 1346.67 273.531 1347.31 272.136C1348.93 267.962 1349.64 263.53 1349.4 259.097V120.389C1349.4 111.982 1347.9 106.443 1344.9 103.769C1341.91 101.096 1335.79 99.7425 1326.55 99.7089C1326.11 99.7089 1325.9 99.1036 1325.9 97.9183C1325.9 96.7329 1326.11 96.1277 1326.55 96.1277L1343.6 96.4303C1353.46 96.817 1361.3 97.0188 1367.11 97.0356C1372.92 97.0524 1379.14 96.7497 1385.76 96.1277C1387.91 95.9259 1391.13 95.7241 1395.43 95.5224C1399.73 95.3206 1403.46 95.2029 1406.61 95.1693C1426.13 95.1693 1441.26 98.4647 1452 105.055C1457.15 108.102 1461.35 112.359 1464.17 117.397C1466.99 122.435 1468.34 128.077 1468.08 133.755C1468.12 143.289 1464.53 152.527 1457.95 159.833C1450.19 168.268 1440.12 174.586 1428.82 178.117V178.142ZM1216.99 277.029C1231.79 277.029 1242.31 273.38 1248.54 266.083C1254.76 258.786 1257.87 247.345 1257.85 231.759C1257.85 215.77 1254.58 204.127 1248.05 196.83C1241.51 189.533 1230.3 185.91 1214.42 185.96C1207.32 186.06 1200.23 186.557 1193.19 187.448V259.097C1192.78 263.99 1194.45 268.835 1197.85 272.59C1200.95 275.549 1207.33 277.029 1216.99 277.029ZM1225.36 177.512C1248.1 177.512 1265.48 181.656 1277.48 189.945C1289.49 198.234 1295.5 210.474 1295.52 226.665C1295.76 237.448 1292.51 248.049 1286.17 257.08C1279.72 265.924 1270.75 272.913 1260.26 277.256C1248.49 282.19 1235.69 284.645 1222.78 284.443C1217.21 284.443 1210.68 283.989 1203.15 283.535C1200.45 283.384 1195.87 283.384 1189.61 283.081C1183.36 282.779 1177.92 282.577 1173.21 282.627L1152.6 282.93C1148.1 282.93 1141.77 283.233 1133.92 283.233C1133.27 283.233 1132.97 282.627 1132.97 281.442C1132.97 280.257 1133.29 279.677 1133.92 279.652C1139.06 279.527 1144.18 278.979 1149.22 278.012C1150.6 277.701 1151.88 277.079 1152.95 276.199C1154.02 275.32 1154.83 274.211 1155.33 272.968C1156.77 268.447 1157.37 263.73 1157.09 259.022V120.389C1157.36 115.741 1156.82 111.082 1155.5 106.594C1155.01 105.369 1154.22 104.271 1153.18 103.393C1152.14 102.515 1150.9 101.883 1149.54 101.55C1144.52 100.472 1139.39 99.8719 1134.24 99.7593C1133.81 99.7593 1133.59 99.154 1133.59 97.9687C1133.59 96.7834 1133.81 96.1781 1134.24 96.1781L1150.33 96.4807C1159.34 96.6573 1167.49 97.086 1174.7 97.086C1181.9 97.086 1190.67 96.6573 1201.39 96.4807L1219.75 96.1781C1220.19 96.1781 1220.4 96.7834 1220.4 97.9687C1220.4 99.154 1220.19 99.7593 1219.75 99.7593C1213.91 99.8654 1208.09 100.465 1202.37 101.55C1200.83 101.906 1199.41 102.575 1198.18 103.508C1196.96 104.441 1195.98 105.616 1195.3 106.947C1193.49 111.446 1192.73 116.25 1193.05 121.045V179.933C1203.75 178.425 1214.54 177.625 1225.36 177.537V177.512ZM1110.14 279.727C1111.23 279.727 1111.74 280.332 1111.74 281.518C1111.74 282.703 1111.2 283.308 1110.14 283.308C1105.85 283.308 1099.19 283.107 1090.19 282.703C1080.75 282.3 1073.98 282.098 1069.91 282.098C1064.49 282.098 1057.95 282.3 1050.27 282.703C1043.05 283.107 1037.26 283.308 1032.89 283.308C1032.02 283.308 1031.59 282.712 1031.59 281.518C1031.59 280.324 1032.02 279.727 1032.89 279.727C1036.99 279.959 1041.1 279.401 1044.97 278.088C1046.15 277.585 1047.15 276.753 1047.81 275.707C1048.47 274.66 1048.78 273.449 1048.68 272.237C1048.68 268.874 1046.53 263.175 1042.23 255.138L978.519 138.043L928.642 240.763C926.043 245.826 924.622 251.343 924.472 256.954C924.301 260.149 924.949 263.336 926.361 266.252C927.774 269.168 929.91 271.729 932.595 273.725C938.999 277.995 946.771 280.111 954.636 279.727C955.701 279.727 956.234 280.324 956.234 281.518C956.234 282.712 955.701 283.308 954.636 283.308C950.773 283.308 945.195 283.107 937.902 282.703C929.743 282.3 922.658 282.098 916.646 282.098C910.635 282.098 903.658 282.3 895.715 282.703C888.495 283.107 882.592 283.308 878.007 283.308C877.14 283.308 876.707 282.703 876.707 281.518C876.707 280.332 877.14 279.727 878.007 279.727C883.298 279.898 888.536 278.702 893.143 276.272C898.149 273.073 902.329 268.878 905.382 263.99C910.869 255.576 915.71 246.812 919.869 237.762L989.702 94.791C990.135 94.1857 991.11 93.8831 992.599 93.8831C994.088 93.8831 995.307 94.1857 995.496 94.791L1075.94 242.276C1083.45 256.466 1089.67 266.26 1094.6 271.657C1099.53 277.054 1104.71 279.744 1110.14 279.727ZM855.18 235.668C855.18 235.265 855.614 235.063 856.48 235.063C857.1 235.064 857.708 235.221 858.24 235.517C858.782 235.82 859.08 236.072 859.053 236.274C857.028 250.388 855.952 264.606 855.83 278.844C855.943 280.066 855.598 281.287 854.856 282.3C854.323 282.715 853.705 283.024 853.038 283.206C852.372 283.389 851.672 283.44 850.983 283.359H708.745C708.122 283.359 707.77 282.754 707.77 281.568C707.77 280.383 708.095 279.778 708.745 279.778C713.789 279.987 718.837 279.486 723.719 278.29C725.192 277.853 726.531 277.094 727.625 276.076C728.718 275.058 729.533 273.811 730.001 272.439C731.263 268.094 731.801 263.594 731.599 259.097V120.389C731.812 115.942 731.273 111.491 730.001 107.199C729.484 105.827 728.633 104.585 727.515 103.57C726.397 102.555 725.042 101.795 723.557 101.348C718.749 100.052 713.745 99.4985 708.745 99.7089C708.095 99.7089 707.77 99.1036 707.77 97.9183C707.77 96.7329 708.095 96.1277 708.745 96.1277H845.189C847.328 96.1277 848.384 97.0356 848.411 98.8262L849.061 138.699C849.061 139.102 848.465 139.405 847.301 139.606C846.137 139.808 845.378 139.606 845.216 139.001C841.75 127.425 835.982 118.825 827.832 113.227C819.682 107.628 808.878 104.828 795.664 104.828H785.997C779.58 104.828 774.841 106.14 771.836 108.712C770.228 110.305 768.997 112.194 768.223 114.257C767.448 116.321 767.148 118.513 767.341 120.692V181.723H794.039C806.477 181.723 816.026 179.723 822.687 175.721C825.802 174.006 828.368 171.547 830.12 168.598C831.871 165.65 832.746 162.319 832.652 158.95C832.652 158.345 833.248 158.042 834.412 158.042C835.576 158.042 836.172 158.345 836.172 158.95L835.82 185.96L836.145 200.336C836.307 207.145 836.795 212.517 836.795 216.527C836.795 216.93 836.145 217.132 834.872 217.132C833.6 217.132 832.95 216.93 832.95 216.527C833.109 212.771 832.264 209.038 830.492 205.662C828.72 202.286 826.075 199.372 822.796 197.183C816.044 192.492 806.333 190.147 793.66 190.147H767.287V257.862C766.921 262.403 768.167 266.931 770.834 270.749C772.233 272.214 773.979 273.356 775.935 274.083C777.89 274.809 780 275.101 782.098 274.935H792.713C809.447 274.935 822.859 271.741 832.95 265.352C843.041 258.963 850.451 249.068 855.18 235.668ZM494.427 275.238H619.606L553.645 141.246L494.427 275.238ZM675.277 275.238C676.429 275.103 677.598 275.26 678.662 275.692C679.125 276.683 679.293 277.772 679.15 278.844C679.15 279.652 678.933 282.451 678.5 287.243C676.642 302.27 675.738 317.386 675.792 332.512C675.792 333.521 675.196 334 674.032 334C672.868 334 672.272 333.496 672.272 332.512C672.272 316.523 666.107 304.333 653.778 295.943C641.449 287.554 623.695 283.35 600.516 283.334H529.167C508.787 283.334 493.181 287.537 482.35 295.943C471.519 304.35 466.104 316.54 466.104 332.512C466.104 333.521 465.454 334 464.181 334C462.908 334 462.259 333.496 462.259 332.512C462.404 318.293 461.654 304.078 460.011 289.941C459.375 286.272 459.05 282.561 459.036 278.844C458.919 277.822 459.087 276.788 459.524 275.843C459.849 275.44 460.769 275.238 462.232 275.238H484.11L564.558 94.791C564.991 94.1857 566.074 93.8831 567.78 93.8831C569.486 93.8831 570.487 94.1857 570.677 94.791L659.491 275.238H675.277Z" fill="white"/>
<path fill-rule="evenodd" clip-rule="evenodd" d="M231.484 298.059L231.836 160.848L255.276 175.876L255.06 298.059H231.484ZM319.378 217.356V247.413L285.178 225.421L284.745 298.059H264.522L264.711 182.088L319.378 217.356ZM180.711 79.092L180.441 298.059H222.022L222.427 144.041L255.276 165.306V127.284L180.711 79.092ZM175.764 298.059L176.034 77.7895L121.962 98.2786L121.557 298.059H175.764ZM180.765 43.8749C210.315 51.6397 236.973 63.0614 251.464 73.7819C296.857 107.246 319.297 137.879 319.297 191.506V206.535L264.738 171.393V122.65L180.738 68.3716L180.765 43.8749ZM0.0305648 78.2905C0.571282 118.542 42.8824 125.881 78.056 124.779C51.8312 115.737 39.7192 96.6505 41.9902 78.2654C48.1544 28.5957 116.825 28.0196 176.034 42.5724V68.3215L112.581 92.3923V148.349L77.4612 162.075L77.1368 298.811C-16.1909 308.079 -32.6287 407.919 71.2159 424.901C94.3045 428.683 117.609 426.63 129.397 415.709C131.903 413.45 134.117 410.928 135.994 408.194C136.561 407.001 136.693 405.668 136.371 404.399C136.049 403.129 135.291 401.991 134.209 401.156C133.484 400.632 132.655 400.247 131.768 400.021C130.882 399.795 129.956 399.734 129.044 399.841C128.132 399.948 127.252 400.221 126.454 400.645C125.656 401.068 124.957 401.633 124.395 402.308C109.228 418.915 89.2488 424 71.9729 420.768C50.0739 416.711 32.068 402.659 32.068 378.663C32.068 356.671 50.9931 338.587 91.5469 338.587C103.443 339.088 121.286 338.787 138.887 338.587H175.764V367.216H180.36V338.612H275.553L319.351 298.059H294.181L294.505 242.053L319.351 258.083V298.16L367.34 253.65V191.632C367.34 91.4405 287.908 27.8193 181.874 27.8193H180.765V-0.00878906H176.088V27.8193H96.9811C57.1032 27.8193 -0.645331 27.5437 0.0305648 78.2905Z" fill="white"/>
</svg>
