<svg width="33" height="429" viewBox="0 0 33 429" fill="none" xmlns="http://www.w3.org/2000/svg">
<path opacity="0.7" d="M9.28202 -4.05731e-07L10.946 2.26205C9.406 3.41272 8.16717 4.91827 7.33506 6.65048C6.50446 8.41879 6.08645 10.3524 6.11254 12.3056C6.09919 14.4884 6.65722 16.6368 7.73125 18.5376C8.74612 20.3848 10.2447 21.9213 12.0666 22.9826C13.9321 24.0517 16.0515 24.5987 18.2018 24.566C19.7989 24.6055 21.3866 24.3121 22.8639 23.7046C24.3412 23.097 25.6756 22.1886 26.7821 21.0372C27.9156 19.8585 28.8004 18.4642 29.3838 16.9369C29.9672 15.4098 30.2372 13.7809 30.1779 12.1473C30.2072 10.2583 29.8055 8.38739 29.0033 6.67657C28.2012 4.96576 27.0196 3.45996 25.5482 2.27338L27.2349 0.0113208C29.0086 1.40906 30.4246 3.20776 31.3665 5.25934C32.3605 7.462 32.8589 9.85571 32.8267 12.2717C32.8267 17.203 31.1891 21.09 27.914 23.9326C25.1328 26.3133 21.5687 27.5822 17.9075 27.4954C15.9675 27.5356 14.0403 27.1711 12.2491 26.4252C10.458 25.6794 8.84215 24.5685 7.50484 23.1636C6.10927 21.7349 5.01535 20.0406 4.28809 18.1811C3.56082 16.3217 3.21506 14.3352 3.27134 12.3396C3.23502 9.87946 3.7697 7.44443 4.83342 5.22543C5.8433 3.15433 7.35254 1.36642 9.22542 0.0226436L9.28202 -4.05731e-07ZM3.98446 52.3102L3.98446 49.4487L14.5683 49.4487L4.01842 38.2289L4.01842 34.4399L16.6511 48.0123L32.1475 33.4559L32.1475 37.1544L19.0961 49.4261L32.2041 49.4261L32.2041 52.2876L3.98446 52.3102ZM3.98446 77.7018L3.98446 61.5847L6.75777 61.5847L6.75777 74.8743L15.5531 74.8743L15.5531 61.6865L18.2811 61.6865L18.2811 74.8743L29.3177 74.8743L29.3177 61.6865L32.1023 61.6865L32.1023 77.6793L3.98446 77.7018ZM32.2155 86.0601L32.2155 89.1366L10.4932 98.5015L32.2155 107.98L32.2155 110.943L4.09766 98.6938L4.09766 98.117L32.2155 86.0601ZM4.04106 139.445L4.04106 119.505L32.1702 119.505L32.1702 122.31L6.72381 122.31L6.72381 136.651L32.1815 136.651L32.1815 139.467L4.04106 139.445ZM32.1702 180.162L4.04107 176.158L4.04107 175.694L27.1103 164.271L4.04106 152.961L4.04106 152.497L32.1702 148.437L32.1702 151.23L12.044 153.979L32.1702 163.909L32.1702 164.622L11.9082 174.688L32.1702 177.414L32.1702 180.162ZM6.13519 203.144C6.15578 205.229 6.72123 207.273 7.77553 209.072C8.82982 210.872 10.3364 212.364 12.1459 213.403C14.02 214.447 16.1355 214.981 18.2811 214.952C19.841 214.966 21.3881 214.67 22.8331 214.083C24.278 213.495 25.5921 212.627 26.6994 211.529C27.8066 210.432 28.6852 209.125 29.2842 207.686C29.8832 206.247 30.1908 204.703 30.1893 203.144C30.2027 201.022 29.652 198.934 28.5932 197.093C27.5761 195.274 26.0758 193.771 24.2578 192.75C22.3922 191.706 20.2837 191.171 18.1453 191.201C16.0248 191.171 13.9346 191.706 12.0893 192.75C10.2746 193.791 8.7763 195.304 7.75388 197.127C6.66483 198.962 6.09007 201.056 6.08991 203.19L6.13519 203.144ZM3.37322 203.258C3.32132 201.283 3.673 199.319 4.40676 197.485C5.14051 195.651 6.24093 193.986 7.6407 192.592C9.70727 190.514 12.345 189.097 15.219 188.52C18.0931 187.943 21.0739 188.232 23.7833 189.35C26.4927 190.469 28.8085 192.367 30.4367 194.802C32.0649 197.238 32.9323 200.102 32.9286 203.031C32.9708 204.989 32.6132 206.934 31.8775 208.748C31.1418 210.563 30.0435 212.208 28.6498 213.584C27.3094 214.974 25.6973 216.074 23.9136 216.815C22.1299 217.556 20.2127 217.923 18.2811 217.893C15.6476 217.908 13.0561 217.234 10.7649 215.936C8.50134 214.684 6.62272 212.838 5.3315 210.598C4.02388 208.384 3.33217 205.862 3.32795 203.292L3.37322 203.258ZM4.09767 242.764L4.09767 239.903L14.5683 239.903L4.01842 228.683L4.01842 224.894L16.6511 238.467L32.1476 223.91L32.1476 227.609L19.0961 239.948L32.2042 239.948L32.2042 242.81L4.09767 242.764ZM0.0565775 281.073L0.0565774 278.539C0.715876 278.124 1.23614 277.521 1.55077 276.809C1.9037 275.984 2.07362 275.092 2.04883 274.196C2.07824 273.356 1.92773 272.519 1.60737 271.742C1.24438 271.034 0.711539 270.428 0.0565771 269.977L0.056577 267.511C1.26143 267.839 2.29452 268.617 2.94307 269.683C3.75807 271.047 4.15185 272.621 4.07503 274.207C4.14607 275.815 3.75315 277.409 2.94307 278.799C2.30159 279.925 1.24573 280.757 -6.46414e-06 281.118L0.0565775 281.073ZM32.2381 263.259L32.2381 266.177L10.6064 266.177L32.1702 284.669L32.1702 285.314L4.0524 285.314L4.0524 282.509L25.9784 282.509L4.0524 263.892L4.0524 263.247L32.2381 263.259ZM6.20311 309.631C6.2237 311.716 6.78915 313.759 7.84344 315.559C8.89774 317.358 10.4043 318.851 12.2138 319.889C14.0881 320.933 16.2035 321.467 18.349 321.439C19.9089 321.452 21.4561 321.157 22.901 320.569C24.3459 319.982 25.66 319.114 26.7673 318.016C27.8746 316.918 28.7531 315.612 29.3521 314.173C29.9511 312.733 30.2587 311.19 30.2572 309.631C30.2707 307.508 29.7199 305.42 28.6611 303.58C27.644 301.761 26.1437 300.258 24.3257 299.237C22.4597 298.193 20.3515 297.659 18.2132 297.687C16.0928 297.659 14.003 298.194 12.1572 299.237C10.3429 300.278 8.84467 301.79 7.8218 303.614C6.7148 305.432 6.11668 307.514 6.08991 309.642L6.20311 309.631ZM3.44114 309.744C3.38924 307.77 3.74094 305.806 4.47469 303.972C5.20845 302.138 6.30885 300.473 7.70862 299.078C9.77519 297.001 12.4129 295.584 15.2869 295.007C18.161 294.43 21.1419 294.719 23.8512 295.837C26.5606 296.956 28.8764 298.853 30.5046 301.289C32.1329 303.725 33.0002 306.589 32.9965 309.518C33.0396 311.477 32.6824 313.424 31.9467 315.24C31.211 317.057 30.1123 318.704 28.7177 320.082C27.3763 321.47 25.7638 322.567 23.9801 323.307C22.1965 324.046 20.2798 324.411 18.349 324.38C15.6793 324.421 13.0465 323.754 10.7196 322.446C8.45538 321.194 6.57654 319.348 5.28623 317.107C3.98664 314.876 3.31035 312.337 3.32795 309.755L3.44114 309.744ZM32.34 331.55L32.34 334.627L10.4932 343.935L32.2155 353.413L32.2155 356.467L4.09767 344.218L4.09767 343.641L32.34 331.55ZM32.34 363.92L32.34 366.839L10.6064 366.839L32.1702 385.331L32.1702 385.976L4.05241 385.976L4.05241 383.171L25.9784 383.171L4.0524 364.554L4.0524 363.909L32.34 363.92ZM19.0961 410.112L32.1702 410.112L32.1702 412.928L19.0961 412.928L18.3264 413.776L32.1815 425.268L32.1815 429L16.5945 415.586L4.05241 427.971L4.05241 424.182L15.938 412.928L4.05241 412.928L4.05241 410.089L15.9493 410.089L4.05241 398.779L4.05241 394.967L16.5945 407.386L32.1815 393.983L32.1815 397.716L18.3264 409.241L19.0961 410.112Z" fill="white"/>
</svg>
